<svg width="399" height="211" viewBox="0 0 399 211" fill="none" xmlns="http://www.w3.org/2000/svg">
<path d="M399 0H0V211H399V0Z" fill="#121212"/>
<path d="M222.993 105.873C224.228 105.873 225.23 104.871 225.23 103.636C225.23 102.401 224.228 101.399 222.993 101.399C221.757 101.399 220.755 102.401 220.755 103.636C220.755 104.871 221.757 105.873 222.993 105.873Z" fill="#121212"/>
<path d="M204.721 196.088C254.765 196.088 295.335 155.531 295.335 105.5C295.335 55.4694 254.765 14.9116 204.721 14.9116C154.676 14.9116 114.107 55.4694 114.107 105.5C114.107 155.531 154.676 196.088 204.721 196.088Z" stroke="#C1C1C1" stroke-width="2"/>
<path d="M243.129 105.873C243.129 116.579 232.444 125.258 219.264 125.258C206.083 125.258 195.398 116.579 195.398 105.873C195.398 95.1669 206.083 86.4875 219.264 86.4875C232.444 86.4875 243.129 95.1669 243.129 105.873Z" fill="#85AAF4"/>
<path d="M219.264 125.258C229.973 125.258 238.654 116.579 238.654 105.873C238.654 95.1666 229.973 86.4875 219.264 86.4875C208.554 86.4875 199.873 95.1666 199.873 105.873C199.873 116.579 208.554 125.258 219.264 125.258Z" fill="#6692EC"/>
<path d="M115.225 117.056C121.61 117.056 126.785 111.882 126.785 105.5C126.785 99.1174 121.61 93.9434 115.225 93.9434C108.841 93.9434 103.665 99.1174 103.665 105.5C103.665 111.882 108.841 117.056 115.225 117.056Z" fill="#939393"/>
<path d="M167.058 104.754C166.44 104.754 165.939 105.255 165.939 105.873C165.939 106.49 166.44 106.991 167.058 106.991V104.754ZM184.211 105.873L173.024 99.416V112.33L184.211 105.873ZM167.058 106.991H174.143V104.754H167.058V106.991Z" fill="#8FDD51"/>
<path d="M163.329 106.991C163.946 106.991 164.448 106.49 164.448 105.873C164.448 105.255 163.946 104.754 163.329 104.754V106.991ZM133.497 105.873L144.684 112.33V99.416L133.497 105.873ZM163.329 104.754H143.565V106.991H163.329V104.754Z" fill="#DD7351"/>
<path d="M261.774 106.991C262.391 106.991 262.892 106.49 262.892 105.873C262.892 105.255 262.391 104.754 261.774 104.754V106.991ZM245.366 105.873L256.553 112.33V99.416L245.366 105.873ZM261.774 104.754H255.435V106.991H261.774V104.754Z" fill="#DD7351"/>
<path d="M265.503 104.754C264.885 104.754 264.384 105.255 264.384 105.873C264.384 106.49 264.885 106.991 265.503 106.991V104.754ZM291.606 105.873L280.419 99.416V112.33L291.606 105.873ZM265.503 106.991H281.537V104.754H265.503V106.991Z" fill="#8FDD51"/>
<path d="M205.093 108.109C206.329 108.109 207.331 107.108 207.331 105.873C207.331 104.637 206.329 103.636 205.093 103.636C203.858 103.636 202.856 104.637 202.856 105.873C202.856 107.108 203.858 108.109 205.093 108.109Z" fill="#FDB513"/>
<path d="M205.093 121.157C213.537 121.157 220.382 114.314 220.382 105.873C220.382 97.4315 213.537 90.5884 205.093 90.5884C196.65 90.5884 189.805 97.4315 189.805 105.873C189.805 114.314 196.65 121.157 205.093 121.157Z" stroke="#FDB513"/>
<path d="M13.4243 21.6219C14.6599 21.6219 15.6617 20.6205 15.6617 19.3852C15.6617 18.1499 14.6599 17.1484 13.4243 17.1484C12.1886 17.1484 11.1869 18.1499 11.1869 19.3852C11.1869 20.6205 12.1886 21.6219 13.4243 21.6219Z" fill="#FDB513"/>
<path d="M25.624 17.5623C25.4763 17.278 25.2713 17.0647 25.0087 16.9226C24.7462 16.7749 24.4427 16.7011 24.0981 16.7011C23.7207 16.7011 23.3844 16.7859 23.0891 16.9554C22.7937 17.1248 22.5613 17.3654 22.3917 17.6771C22.2277 17.9887 22.1456 18.3496 22.1456 18.7597C22.1456 19.1697 22.2277 19.5334 22.3917 19.8505C22.5613 20.1621 22.7937 20.4027 23.0891 20.5722C23.3844 20.7417 23.7207 20.8264 24.0981 20.8264C24.6068 20.8264 25.0197 20.6843 25.3369 20.4C25.6541 20.1157 25.8483 19.7302 25.9193 19.2436H23.7782V18.4972H26.9202V19.2272C26.86 19.67 26.7015 20.0773 26.4444 20.4492C26.1928 20.821 25.8619 21.1189 25.4517 21.3431C25.047 21.5618 24.5958 21.6712 24.0981 21.6712C23.5621 21.6712 23.0727 21.5482 22.6296 21.3021C22.1866 21.0506 21.8339 20.7034 21.5714 20.2605C21.3143 19.8177 21.1858 19.3174 21.1858 18.7597C21.1858 18.202 21.3143 17.7017 21.5714 17.2588C21.8339 16.8159 22.1866 16.4715 22.6296 16.2254C23.0781 15.974 23.5676 15.8482 24.0981 15.8482C24.7052 15.8482 25.2439 15.9986 25.7143 16.2993C26.1901 16.5945 26.5346 17.0155 26.7479 17.5623H25.624ZM28.7778 17.7591C28.9145 17.5295 29.095 17.3518 29.3193 17.226C29.549 17.0948 29.8197 17.0292 30.1314 17.0292V17.9969H29.8935C29.5271 17.9969 29.2482 18.0899 29.0568 18.2758C28.8708 18.4617 28.7778 18.7843 28.7778 19.2436V21.622H27.8426V17.103H28.7778V17.7591ZM30.6794 19.342C30.6794 18.8881 30.7724 18.4863 30.9583 18.1364C31.1498 17.7865 31.4068 17.5158 31.7295 17.3244C32.0576 17.1276 32.4186 17.0292 32.8124 17.0292C33.1679 17.0292 33.4769 17.1002 33.7394 17.2424C34.0073 17.3791 34.2206 17.5513 34.3793 17.7591V17.103H35.3227V21.622H34.3793V20.9495C34.2206 21.1627 34.0047 21.3404 33.7312 21.4825C33.4577 21.6247 33.1459 21.6958 32.7959 21.6958C32.4076 21.6958 32.0522 21.5974 31.7295 21.4005C31.4068 21.1983 31.1498 20.9194 30.9583 20.564C30.7724 20.2031 30.6794 19.7958 30.6794 19.342ZM34.3793 19.3584C34.3793 19.0467 34.3136 18.7761 34.1824 18.5464C34.0566 18.3168 33.8898 18.1418 33.6819 18.0216C33.4741 17.9013 33.2499 17.8411 33.0092 17.8411C32.7686 17.8411 32.5444 17.9013 32.3365 18.0216C32.1287 18.1364 31.9592 18.3086 31.8279 18.5382C31.7021 18.7624 31.6392 19.0303 31.6392 19.342C31.6392 19.6536 31.7021 19.927 31.8279 20.1621C31.9592 20.3972 32.1287 20.5776 32.3365 20.7034C32.5498 20.8237 32.7741 20.8838 33.0092 20.8838C33.2499 20.8838 33.4741 20.8237 33.6819 20.7034C33.8898 20.5832 34.0566 20.4082 34.1824 20.1785C34.3136 19.9434 34.3793 19.67 34.3793 19.3584ZM38.2985 20.7854L39.5783 17.103H40.5709L38.8481 21.622H37.7324L36.0179 17.103H37.0187L38.2985 20.7854ZM41.7537 16.5043C41.5841 16.5043 41.4419 16.4469 41.3271 16.3321C41.2122 16.2172 41.1548 16.0751 41.1548 15.9056C41.1548 15.7361 41.2122 15.5939 41.3271 15.4791C41.4419 15.3643 41.5841 15.3069 41.7537 15.3069C41.9178 15.3069 42.0572 15.3643 42.1721 15.4791C42.2869 15.5939 42.3444 15.7361 42.3444 15.9056C42.3444 16.0751 42.2869 16.2172 42.1721 16.3321C42.0572 16.4469 41.9178 16.5043 41.7537 16.5043ZM42.2131 17.103V21.622H41.2779V17.103H42.2131ZM44.5321 17.8657V20.3672C44.5321 20.5366 44.5703 20.6596 44.6469 20.7362C44.729 20.8073 44.8657 20.8428 45.0571 20.8428H45.6314V21.622H44.893C44.4719 21.622 44.1492 21.5236 43.925 21.3267C43.7007 21.1299 43.5886 20.81 43.5886 20.3672V17.8657H43.0554V17.103H43.5886V15.9794H44.5321V17.103H45.6314V17.8657H44.5321ZM46.1815 19.342C46.1815 18.8881 46.2745 18.4863 46.4605 18.1364C46.6519 17.7865 46.909 17.5158 47.2316 17.3244C47.5598 17.1276 47.9207 17.0292 48.3145 17.0292C48.67 17.0292 48.979 17.1002 49.2415 17.2424C49.5096 17.3791 49.7229 17.5513 49.8814 17.7591V17.103H50.8249V21.622H49.8814V20.9495C49.7229 21.1627 49.5068 21.3404 49.2333 21.4825C48.9599 21.6247 48.6482 21.6958 48.2981 21.6958C47.9098 21.6958 47.5543 21.5974 47.2316 21.4005C46.909 21.1983 46.6519 20.9194 46.4605 20.564C46.2745 20.2031 46.1815 19.7958 46.1815 19.342ZM49.8814 19.3584C49.8814 19.0467 49.8158 18.7761 49.6845 18.5464C49.5588 18.3168 49.392 18.1418 49.1841 18.0216C48.9763 17.9013 48.7521 17.8411 48.5114 17.8411C48.2708 17.8411 48.0465 17.9013 47.8387 18.0216C47.6309 18.1364 47.4613 18.3086 47.3301 18.5382C47.2043 18.7624 47.1414 19.0303 47.1414 19.342C47.1414 19.6536 47.2043 19.927 47.3301 20.1621C47.4613 20.3972 47.6309 20.5776 47.8387 20.7034C48.052 20.8237 48.2763 20.8838 48.5114 20.8838C48.7521 20.8838 48.9763 20.8237 49.1841 20.7034C49.392 20.5832 49.5588 20.4082 49.6845 20.1785C49.8158 19.9434 49.8814 19.67 49.8814 19.3584ZM53.1444 17.8657V20.3672C53.1444 20.5366 53.1826 20.6596 53.2592 20.7362C53.3412 20.8073 53.4779 20.8428 53.6694 20.8428H54.2436V21.622H53.5053C53.0842 21.622 52.7615 21.5236 52.5373 21.3267C52.313 21.1299 52.2009 20.81 52.2009 20.3672V17.8657H51.6677V17.103H52.2009V15.9794H53.1444V17.103H54.2436V17.8657H53.1444ZM55.5815 16.5043C55.4119 16.5043 55.2697 16.4469 55.1549 16.3321C55.04 16.2172 54.9826 16.0751 54.9826 15.9056C54.9826 15.7361 55.04 15.5939 55.1549 15.4791C55.2697 15.3643 55.4119 15.3069 55.5815 15.3069C55.7455 15.3069 55.885 15.3643 55.9999 15.4791C56.1147 15.5939 56.1721 15.7361 56.1721 15.9056C56.1721 16.0751 56.1147 16.2172 55.9999 16.3321C55.885 16.4469 55.7455 16.5043 55.5815 16.5043ZM56.0409 17.103V21.622H55.1056V17.103H56.0409ZM59.2294 21.6958C58.8028 21.6958 58.4173 21.6001 58.0727 21.4087C57.7281 21.2119 57.4574 20.9385 57.2605 20.5886C57.0637 20.2332 56.9652 19.8231 56.9652 19.3584C56.9652 18.8991 57.0663 18.4918 57.2687 18.1364C57.4711 17.781 57.7472 17.5076 58.0973 17.3162C58.4473 17.1248 58.8383 17.0292 59.2705 17.0292C59.7025 17.0292 60.0935 17.1248 60.4436 17.3162C60.7936 17.5076 61.0698 17.781 61.2722 18.1364C61.4745 18.4918 61.5757 18.8991 61.5757 19.3584C61.5757 19.8177 61.4717 20.225 61.264 20.5804C61.0561 20.9358 60.7717 21.2119 60.4108 21.4087C60.0553 21.6001 59.6615 21.6958 59.2294 21.6958ZM59.2294 20.8838C59.47 20.8838 59.6943 20.8264 59.9021 20.7116C60.1154 20.5968 60.2877 20.4246 60.419 20.1949C60.5502 19.9653 60.6159 19.6864 60.6159 19.3584C60.6159 19.0303 60.5529 18.7542 60.4272 18.53C60.3014 18.3004 60.1345 18.1282 59.9268 18.0134C59.7189 17.8985 59.4946 17.8411 59.254 17.8411C59.0134 17.8411 58.7891 17.8985 58.5813 18.0134C58.3789 18.1282 58.2176 18.3004 58.0973 18.53C57.977 18.7542 57.9168 19.0303 57.9168 19.3584C57.9168 19.845 58.0399 20.2223 58.286 20.4902C58.5376 20.7526 58.8521 20.8838 59.2294 20.8838ZM64.7808 17.0292C65.1364 17.0292 65.4535 17.103 65.7325 17.2506C66.0168 17.3982 66.2383 17.6169 66.397 17.9067C66.5556 18.1965 66.6349 18.5464 66.6349 18.9565V21.622H65.7079V19.0959C65.7079 18.6913 65.6067 18.3824 65.4043 18.1692C65.202 17.9505 64.9257 17.8411 64.5757 17.8411C64.2257 17.8411 63.9468 17.9505 63.739 18.1692C63.5366 18.3824 63.4354 18.6913 63.4354 19.0959V21.622H62.5002V17.103H63.4354V17.6197C63.5885 17.4338 63.7827 17.2889 64.0179 17.185C64.2586 17.0811 64.5129 17.0292 64.7808 17.0292ZM69.4686 21.6958C69.1131 21.6958 68.7931 21.6329 68.5088 21.5072C68.2298 21.3759 68.0083 21.2009 67.8443 20.9823C67.6802 20.7581 67.5926 20.5093 67.5817 20.2359H68.5498C68.5662 20.4273 68.6564 20.5886 68.8205 20.7198C68.99 20.8456 69.2006 20.9084 69.4522 20.9084C69.7147 20.9084 69.917 20.8592 70.0593 20.7608C70.2069 20.657 70.2808 20.5257 70.2808 20.3672C70.2808 20.1977 70.1987 20.0719 70.0347 19.9899C69.876 19.9079 69.6217 19.8177 69.2717 19.7192C68.9326 19.6263 68.6564 19.5361 68.4431 19.4486C68.2298 19.3611 68.0438 19.2272 67.8853 19.0467C67.7321 18.8663 67.6556 18.6285 67.6556 18.3332C67.6556 18.0926 67.7266 17.8739 67.8689 17.6771C68.011 17.4748 68.2134 17.3162 68.4759 17.2014C68.7439 17.0866 69.0502 17.0292 69.3948 17.0292C69.9088 17.0292 70.3218 17.1604 70.6335 17.4228C70.9507 17.6799 71.1202 18.0325 71.1422 18.4808H70.2069C70.1905 18.2786 70.1085 18.1172 69.9608 17.9969C69.8132 17.8767 69.6135 17.8165 69.3619 17.8165C69.1158 17.8165 68.9272 17.863 68.7959 17.9559C68.6646 18.0489 68.599 18.1719 68.599 18.325C68.599 18.4453 68.6427 18.5464 68.7303 18.6285C68.8177 18.7105 68.9244 18.7761 69.0502 18.8253C69.1759 18.8691 69.3619 18.9265 69.6081 18.9975C69.9362 19.085 70.2042 19.1752 70.412 19.2682C70.6253 19.3556 70.8085 19.4868 70.9617 19.6618C71.1148 19.8368 71.1941 20.0691 71.1996 20.359C71.1996 20.616 71.1284 20.8456 70.9863 21.0479C70.8441 21.2502 70.6417 21.4087 70.3792 21.5236C70.1221 21.6384 69.8186 21.6958 69.4686 21.6958ZM73.0386 20.8592H75.0896V21.622H71.9557V20.8592L74.0149 17.8657H71.9557V17.103H75.0896V17.8657L73.0386 20.8592ZM80.2147 19.2518C80.2147 19.4212 80.2035 19.5744 80.1819 19.711H76.7281C76.7549 20.0719 76.8892 20.3617 77.1301 20.5804C77.3702 20.7991 77.6656 20.9084 78.0161 20.9084C78.5187 20.9084 78.8745 20.698 79.0826 20.2769H80.0916C79.9544 20.6925 79.706 21.0342 79.3451 21.3021C78.9893 21.5646 78.5463 21.6958 78.0161 21.6958C77.5835 21.6958 77.1957 21.6001 76.8511 21.4087C76.5118 21.2119 76.2441 20.9385 76.0472 20.5886C75.8555 20.2332 75.76 19.8231 75.76 19.3584C75.76 18.8937 75.8525 18.4863 76.039 18.1364C76.2299 17.781 76.4954 17.5076 76.8347 17.3162C77.1793 17.1248 77.5731 17.0292 78.0161 17.0292C78.4427 17.0292 78.8223 17.1222 79.1564 17.308C79.4898 17.4939 79.7493 17.7563 79.9357 18.0954C80.1214 18.4289 80.2147 18.8143 80.2147 19.2518ZM79.2384 18.9565C79.2325 18.6121 79.1094 18.336 78.8693 18.1282C78.6284 17.9204 78.3301 17.8165 77.9751 17.8165C77.6521 17.8165 77.3762 17.9204 77.1465 18.1282C76.9168 18.3304 76.7795 18.6066 76.7363 18.9565H79.2384ZM83.4156 17.0292C83.7714 17.0292 84.0883 17.103 84.3673 17.2506C84.6514 17.3982 84.8729 17.6169 85.0318 17.9067C85.1906 18.1965 85.2697 18.5464 85.2697 18.9565V21.622H84.3427V19.0959C84.3427 18.6913 84.2412 18.3824 84.0391 18.1692C83.837 17.9505 83.5603 17.8411 83.2105 17.8411C82.8608 17.8411 82.5818 17.9505 82.3737 18.1692C82.1716 18.3824 82.0702 18.6913 82.0702 19.0959V21.622H81.135V17.103H82.0702V17.6197C82.2231 17.4338 82.4177 17.2889 82.6527 17.185C82.8936 17.0811 83.1479 17.0292 83.4156 17.0292ZM87.5533 17.8657V20.3672C87.5533 20.5366 87.5921 20.6596 87.6681 20.7362C87.7502 20.8073 87.8874 20.8428 88.0783 20.8428H88.6526V21.622H87.9143C87.4936 21.622 87.1707 21.5236 86.9462 21.3267C86.7225 21.1299 86.6099 20.81 86.6099 20.3672V17.8657H86.0766V17.103H86.6099V15.9794H87.5533V17.103H88.6526V17.8657H87.5533ZM90.45 17.7591C90.5872 17.5295 90.7677 17.3518 90.9914 17.226C91.2211 17.0948 91.4918 17.0292 91.8036 17.0292V17.9969H91.5657C91.1995 17.9969 90.9206 18.0899 90.7289 18.2758C90.5432 18.4617 90.45 18.7843 90.45 19.2436V21.622H89.5147V17.103H90.45V17.7591ZM96.7571 17.103V21.622H95.8219V21.0889C95.6742 21.2748 95.4803 21.4224 95.2394 21.5318C95.0045 21.6356 94.7524 21.6876 94.4847 21.6876C94.129 21.6876 93.809 21.6138 93.5249 21.4661C93.2459 21.3185 93.0244 21.0998 92.8604 20.81C92.7015 20.5202 92.6225 20.1703 92.6225 19.7603V17.103H93.5495V19.6208C93.5495 20.0255 93.6509 20.3371 93.853 20.5558C94.0551 20.769 94.3318 20.8756 94.6816 20.8756C95.0314 20.8756 95.3081 20.769 95.5102 20.5558C95.7183 20.3371 95.8219 20.0255 95.8219 19.6208V17.103H96.7571ZM103.463 17.0292C103.818 17.0292 104.135 17.103 104.414 17.2506C104.699 17.3982 104.921 17.6169 105.079 17.9067C105.243 18.1965 105.325 18.5464 105.325 18.9565V21.622H104.398V19.0959C104.398 18.6913 104.297 18.3824 104.094 18.1692C103.892 17.9505 103.616 17.8411 103.266 17.8411C102.916 17.8411 102.637 17.9505 102.429 18.1692C102.227 18.3824 102.125 18.6913 102.125 19.0959V21.622H101.198V19.0959C101.198 18.6913 101.098 18.3824 100.895 18.1692C100.693 17.9505 100.417 17.8411 100.066 17.8411C99.7165 17.8411 99.4375 17.9505 99.2295 18.1692C99.0273 18.3824 98.9259 18.6913 98.9259 19.0959V21.622H97.9907V17.103H98.9259V17.6197C99.0795 17.4338 99.2734 17.2889 99.5084 17.185C99.744 17.0811 99.9954 17.0292 100.263 17.0292C100.624 17.0292 100.947 17.1058 101.231 17.2588C101.516 17.4119 101.735 17.6333 101.887 17.9231C102.025 17.6497 102.238 17.4338 102.527 17.2752C102.817 17.1112 103.129 17.0292 103.463 17.0292Z" fill="#FDB513"/>
<path d="M13.4243 35.0423C14.6599 35.0423 15.6617 34.0409 15.6617 32.8056C15.6617 31.5703 14.6599 30.5688 13.4243 30.5688C12.1886 30.5688 11.1869 31.5703 11.1869 32.8056C11.1869 34.0409 12.1886 35.0423 13.4243 35.0423Z" fill="white"/>
<path d="M27.5026 29.3424V35.0424H26.5674V31.1385L24.8282 35.0424H24.1801L22.4327 31.1385V35.0424H21.4975V29.3424H22.5066L24.5083 33.8122L26.5018 29.3424H27.5026ZM29.2077 29.9247C29.0381 29.9247 28.8959 29.8673 28.7811 29.7525C28.6662 29.6377 28.6088 29.4955 28.6088 29.326C28.6088 29.1565 28.6662 29.0143 28.7811 28.8995C28.8959 28.7847 29.0381 28.7273 29.2077 28.7273C29.3717 28.7273 29.5112 28.7847 29.6261 28.8995C29.7409 29.0143 29.7983 29.1565 29.7983 29.326C29.7983 29.4955 29.7409 29.6377 29.6261 29.7525C29.5112 29.8673 29.3717 29.9247 29.2077 29.9247ZM29.6671 30.5234V35.0424H28.7319V30.5234H29.6671ZM31.986 31.2861V33.7876C31.986 33.957 32.0243 34.0801 32.1009 34.1566C32.1829 34.2277 32.3196 34.2633 32.5111 34.2633H33.0854V35.0424H32.347C31.9259 35.0424 31.6032 34.944 31.379 34.7471C31.1547 34.5503 31.0426 34.2304 31.0426 33.7876V31.2861H30.5094V30.5234H31.0426V29.3998H31.986V30.5234H33.0854V31.2861H31.986ZM35.0384 31.2861V33.7876C35.0384 33.957 35.0767 34.0801 35.1533 34.1566C35.2353 34.2277 35.372 34.2633 35.5635 34.2633H36.1377V35.0424H35.3994C34.9783 35.0424 34.6555 34.944 34.4314 34.7471C34.2071 34.5503 34.095 34.2304 34.095 33.7876V31.2861H33.5618V30.5234H34.095V29.3998H35.0384V30.5234H36.1377V31.2861H35.0384ZM41.1425 32.6722C41.1425 32.8416 41.1317 32.9948 41.1097 33.1315H37.656C37.6833 33.4923 37.8173 33.7821 38.0579 34.0008C38.2986 34.2195 38.5939 34.3289 38.9439 34.3289C39.4471 34.3289 39.8026 34.1184 40.0104 33.6974H41.0195C40.8828 34.1129 40.6339 34.4546 40.2729 34.7225C39.9175 34.985 39.4745 35.1162 38.9439 35.1162C38.5119 35.1162 38.1236 35.0205 37.779 34.8291C37.44 34.6323 37.1719 34.3589 36.975 34.009C36.7837 33.6536 36.6879 33.2435 36.6879 32.7788C36.6879 32.3141 36.7809 31.9067 36.9668 31.5568C37.1583 31.2014 37.4236 30.928 37.7626 30.7366C38.1072 30.5452 38.5009 30.4496 38.9439 30.4496C39.3705 30.4496 39.7507 30.5426 40.0843 30.7284C40.4179 30.9143 40.6777 31.1768 40.8636 31.5158C41.0496 31.8493 41.1425 32.2347 41.1425 32.6722ZM40.1663 32.3769C40.1609 32.0325 40.0378 31.7564 39.7971 31.5486C39.5565 31.3408 39.2584 31.2369 38.9029 31.2369C38.5803 31.2369 38.304 31.3408 38.0743 31.5486C37.8446 31.7509 37.7079 32.027 37.6642 32.3769H40.1663ZM42.9982 28.9733V35.0424H42.0629V28.9733H42.9982ZM45.1613 31.1877C45.3199 30.9799 45.5359 30.805 45.8093 30.6628C46.0828 30.5206 46.3918 30.4496 46.7364 30.4496C47.1301 30.4496 47.4884 30.548 47.8111 30.7448C48.1392 30.9362 48.3963 31.2069 48.5822 31.5568C48.7681 31.9067 48.8611 32.3086 48.8611 32.7624C48.8611 33.2162 48.7681 33.6235 48.5822 33.9844C48.3963 34.3398 48.1392 34.6187 47.8111 34.8209C47.4884 35.0178 47.1301 35.1162 46.7364 35.1162C46.3918 35.1162 46.0855 35.0478 45.8176 34.9112C45.5496 34.769 45.3308 34.5941 45.1613 34.3863V37.1912H44.226V30.5234H45.1613V31.1877ZM47.9095 32.7624C47.9095 32.4507 47.8439 32.1828 47.7126 31.9587C47.5868 31.729 47.4173 31.5568 47.204 31.442C46.9961 31.3217 46.7719 31.2615 46.5313 31.2615C46.2961 31.2615 46.0719 31.3217 45.8586 31.442C45.6507 31.5622 45.4812 31.7372 45.3499 31.9669C45.2241 32.1965 45.1613 32.4671 45.1613 32.7788C45.1613 33.0904 45.2241 33.3639 45.3499 33.5989C45.4812 33.8286 45.6507 34.0036 45.8586 34.1238C46.0719 34.2441 46.2961 34.3043 46.5313 34.3043C46.7719 34.3043 46.9961 34.2441 47.204 34.1238C47.4173 33.998 47.5868 33.8176 47.7126 33.5825C47.8439 33.3475 47.9095 33.074 47.9095 32.7624ZM53.8797 30.5234V35.0424H52.9444V34.5093C52.7968 34.6952 52.6026 34.8428 52.362 34.9522C52.1268 35.056 51.8752 35.108 51.6072 35.108C51.2517 35.108 50.9318 35.0342 50.6474 34.8866C50.3685 34.7389 50.147 34.5203 49.9829 34.2304C49.8243 33.9406 49.745 33.5907 49.745 33.1807V30.5234H50.672V33.0412C50.672 33.4459 50.7731 33.7575 50.9755 33.9762C51.1779 34.1894 51.454 34.2961 51.8041 34.2961C52.1541 34.2961 52.4303 34.1894 52.6327 33.9762C52.8405 33.7575 52.9444 33.4459 52.9444 33.0412V30.5234H53.8797ZM57.3942 30.4496C57.7497 30.4496 58.0669 30.5234 58.3459 30.671C58.6303 30.8187 58.8518 31.0373 59.0104 31.3271C59.169 31.617 59.2483 31.9669 59.2483 32.3769V35.0424H58.3212V32.5163C58.3212 32.1117 58.2201 31.8028 58.0177 31.5896C57.8154 31.3709 57.5392 31.2615 57.1891 31.2615C56.8391 31.2615 56.5602 31.3709 56.3523 31.5896C56.15 31.8028 56.0488 32.1117 56.0488 32.5163V35.0424H55.1136V30.5234H56.0488V31.0401C56.202 30.8542 56.3961 30.7093 56.6313 30.6054C56.8719 30.5016 57.1263 30.4496 57.3942 30.4496ZM62.2297 32.787L64.3134 35.0424H63.05L61.3765 33.0987V35.0424H60.4412V28.9733H61.3765V32.4999L63.0172 30.5234H64.3134L62.2297 32.787ZM66.0748 31.2861V33.7876C66.0748 33.957 66.1131 34.0801 66.1897 34.1566C66.2717 34.2277 66.4084 34.2633 66.5999 34.2633H67.1741V35.0424H66.4358C66.0146 35.0424 65.692 34.944 65.4677 34.7471C65.2435 34.5503 65.1314 34.2304 65.1314 33.7876V31.2861H64.5981V30.5234H65.1314V29.3998H66.0748V30.5234H67.1741V31.2861H66.0748ZM69.8554 32.7624C69.8554 32.3086 69.9484 31.9067 70.1343 31.5568C70.3258 31.2069 70.5828 30.9362 70.9055 30.7448C71.2336 30.548 71.5973 30.4496 71.9966 30.4496C72.2919 30.4496 72.5818 30.5152 72.8662 30.6464C73.1561 30.7722 73.3858 30.9417 73.5553 31.1549V28.9733H74.4987V35.0424H73.5553V34.3617C73.4022 34.5803 73.1889 34.7608 72.9154 34.903C72.6474 35.0451 72.3384 35.1162 71.9884 35.1162C71.5946 35.1162 71.2336 35.0178 70.9055 34.8209C70.5828 34.6187 70.3258 34.3398 70.1343 33.9844C69.9484 33.6235 69.8554 33.2162 69.8554 32.7624ZM73.5553 32.7788C73.5553 32.4671 73.4897 32.1965 73.3584 31.9669C73.2326 31.7372 73.0658 31.5622 72.858 31.442C72.6501 31.3217 72.4259 31.2615 72.1853 31.2615C71.9446 31.2615 71.7204 31.3217 71.5126 31.442C71.3047 31.5568 71.1352 31.729 71.0039 31.9587C70.8781 32.1828 70.8152 32.4507 70.8152 32.7624C70.8152 33.074 70.8781 33.3475 71.0039 33.5825C71.1352 33.8176 71.3047 33.998 71.5126 34.1238C71.7259 34.2441 71.9501 34.3043 72.1853 34.3043C72.4259 34.3043 72.6501 34.2441 72.858 34.1238C73.0658 34.0036 73.2326 33.8286 73.3584 33.5989C73.4897 33.3639 73.5553 33.0904 73.5553 32.7788ZM79.8701 32.6722C79.8701 32.8416 79.8589 32.9948 79.8373 33.1315H76.3835C76.4111 33.4923 76.5446 33.7821 76.7855 34.0008C77.0264 34.2195 77.3217 34.3289 77.6715 34.3289C78.1749 34.3289 78.5299 34.1184 78.738 33.6974H79.747C79.6105 34.1129 79.3614 34.4546 79.0005 34.7225C78.6447 34.985 78.2017 35.1162 77.6715 35.1162C77.2397 35.1162 76.8511 35.0205 76.5065 34.8291C76.1672 34.6323 75.8995 34.3589 75.7026 34.009C75.5109 33.6536 75.4155 33.2435 75.4155 32.7788C75.4155 32.3141 75.5087 31.9067 75.6944 31.5568C75.886 31.2014 76.1508 30.928 76.4901 30.7366C76.8347 30.5452 77.2285 30.4496 77.6715 30.4496C78.0981 30.4496 78.4784 30.5426 78.8118 30.7284C79.1452 30.9143 79.4054 31.1768 79.5912 31.5158C79.7769 31.8493 79.8701 32.2347 79.8701 32.6722ZM78.8938 32.3769C78.8886 32.0325 78.7656 31.7564 78.5247 31.5486C78.2838 31.3408 77.9862 31.2369 77.6305 31.2369C77.3075 31.2369 77.0316 31.3408 76.8019 31.5486C76.5722 31.7509 76.4357 32.027 76.3917 32.3769H78.8938ZM81.7256 31.1795C81.8621 30.9499 82.0426 30.7722 82.2671 30.6464C82.4968 30.5152 82.7675 30.4496 83.0792 30.4496V31.4174H82.8413C82.4751 31.4174 82.1962 31.5103 82.0045 31.6962C81.8188 31.8821 81.7256 32.2047 81.7256 32.664V35.0424H80.7904V30.5234H81.7256V31.1795ZM87.0051 30.0969V31.77H88.974V32.5328H87.0051V34.2797H89.2201V35.0424H86.0699V29.3342H89.2201V30.0969H87.0051ZM91.3076 31.1795C91.4441 30.9499 91.6245 30.7722 91.849 30.6464C92.0787 30.5152 92.3494 30.4496 92.6612 30.4496V31.4174H92.4233C92.0564 31.4174 91.7774 31.5103 91.5865 31.6962C91.4001 31.8821 91.3076 32.2047 91.3076 32.664V35.0424H90.3724V30.5234H91.3076V31.1795ZM93.2086 32.7624C93.2086 32.3086 93.3018 31.9067 93.4875 31.5568C93.6792 31.2069 93.9365 30.9362 94.2587 30.7448C94.5868 30.548 94.9508 30.4496 95.3498 30.4496C95.6451 30.4496 95.9352 30.5152 96.2194 30.6464C96.5095 30.7722 96.7392 30.9417 96.9085 31.1549V28.9733H97.8519V35.0424H96.9085V34.3617C96.7556 34.5803 96.5423 34.7608 96.2686 34.903C96.0009 35.0451 95.6921 35.1162 95.3416 35.1162C94.9478 35.1162 94.5868 35.0178 94.2587 34.8209C93.9365 34.6187 93.6792 34.3398 93.4875 33.9844C93.3018 33.6235 93.2086 33.2162 93.2086 32.7624ZM96.9085 32.7788C96.9085 32.4671 96.8429 32.1965 96.7116 31.9669C96.5863 31.7372 96.4193 31.5622 96.2112 31.442C96.0039 31.3217 95.7794 31.2615 95.5385 31.2615C95.2983 31.2615 95.0738 31.3217 94.8658 31.442C94.6584 31.5568 94.4884 31.729 94.3571 31.9587C94.2318 32.1828 94.1684 32.4507 94.1684 32.7624C94.1684 33.074 94.2318 33.3475 94.3571 33.5825C94.4884 33.8176 94.6584 33.998 94.8658 34.1238C95.0791 34.2441 95.3035 34.3043 95.5385 34.3043C95.7794 34.3043 96.0039 34.2441 96.2112 34.1238C96.4193 34.0036 96.5863 33.8286 96.7116 33.5989C96.8429 33.3639 96.9085 33.0904 96.9085 32.7788ZM103.223 32.6722C103.223 32.8416 103.213 32.9948 103.19 33.1315H99.7365C99.7641 33.4923 99.8984 33.7821 100.139 34.0008C100.379 34.2195 100.675 34.3289 101.025 34.3289C101.528 34.3289 101.884 34.1184 102.091 33.6974H103.1C102.964 34.1129 102.715 34.4546 102.354 34.7225C101.999 34.985 101.556 35.1162 101.025 35.1162C100.593 35.1162 100.204 35.0205 99.8596 34.8291C99.521 34.6323 99.2525 34.3589 99.0556 34.009C98.8647 33.6536 98.7685 33.2435 98.7685 32.7788C98.7685 32.3141 98.8617 31.9067 99.0474 31.5568C99.2391 31.2014 99.5046 30.928 99.8432 30.7366C100.188 30.5452 100.582 30.4496 101.025 30.4496C101.451 30.4496 101.831 30.5426 102.165 30.7284C102.499 30.9143 102.759 31.1768 102.944 31.5158C103.131 31.8493 103.223 32.2347 103.223 32.6722ZM102.247 32.3769C102.242 32.0325 102.119 31.7564 101.878 31.5486C101.638 31.3408 101.339 31.2369 100.984 31.2369C100.661 31.2369 100.385 31.3408 100.155 31.5486C99.9252 31.7509 99.7887 32.027 99.7448 32.3769H102.247Z" fill="white"/>
<path d="M25.357 175.958L17.899 171.653V180.263L25.357 175.958ZM11.1869 176.703H18.6448V175.212H11.1869V176.703Z" fill="#8FDD51"/>
<path d="M32.0952 177.382H34.745V178.194H30.9877V177.464L33.6293 173.306H30.9877V172.494H34.745V173.224L32.0952 177.382ZM39.9103 175.824C39.9103 175.993 39.8993 176.147 39.8775 176.283H36.4237C36.451 176.644 36.585 176.934 36.8257 177.153C37.0663 177.371 37.3617 177.481 37.7117 177.481C38.2149 177.481 38.5703 177.271 38.7782 176.849H39.7872C39.6505 177.265 39.4016 177.607 39.0407 177.874C38.6852 178.137 38.2421 178.268 37.7117 178.268C37.2796 178.268 36.8913 178.173 36.5467 177.981C36.2076 177.784 35.9397 177.511 35.7428 177.161C35.5513 176.805 35.4556 176.395 35.4556 175.931C35.4556 175.466 35.5486 175.058 35.7346 174.709C35.926 174.353 36.1912 174.08 36.5303 173.889C36.8749 173.697 37.2687 173.601 37.7117 173.601C38.1383 173.601 38.5184 173.695 38.852 173.88C39.1856 174.066 39.4454 174.328 39.6313 174.668C39.8173 175.001 39.9103 175.386 39.9103 175.824ZM38.934 175.529C38.9286 175.184 38.8055 174.908 38.5649 174.7C38.3242 174.492 38.0262 174.389 37.6706 174.389C37.3479 174.389 37.0718 174.492 36.8421 174.7C36.6124 174.903 36.4757 175.179 36.4319 175.529H38.934ZM43.1113 173.601C43.4667 173.601 43.784 173.675 44.0629 173.823C44.3473 173.971 44.5688 174.189 44.7274 174.479C44.886 174.769 44.9653 175.119 44.9653 175.529V178.194H44.0383V175.668C44.0383 175.263 43.9371 174.955 43.7348 174.741C43.5324 174.523 43.2562 174.413 42.9062 174.413C42.5561 174.413 42.2772 174.523 42.0694 174.741C41.867 174.955 41.7659 175.263 41.7659 175.668V178.194H40.8307V173.675H41.7659V174.192C41.919 174.006 42.1131 173.861 42.3483 173.757C42.5889 173.654 42.8433 173.601 43.1113 173.601ZM47.2493 174.438V176.939C47.2493 177.109 47.2876 177.232 47.3642 177.309C47.4462 177.379 47.5829 177.415 47.7744 177.415H48.3486V178.194H47.6103C47.1891 178.194 46.8665 178.096 46.6423 177.899C46.418 177.702 46.3059 177.382 46.3059 176.939V174.438H45.7727V173.675H46.3059V172.552H47.2493V173.675H48.3486V174.438H47.2493ZM50.1458 174.331C50.2826 174.102 50.463 173.924 50.6873 173.798C50.917 173.667 51.1877 173.601 51.4995 173.601V174.569H51.2616C50.8951 174.569 50.6161 174.662 50.4248 174.848C50.2388 175.034 50.1458 175.357 50.1458 175.816V178.194H49.2106V173.675H50.1458V174.331ZM52.835 173.077C52.6654 173.077 52.5232 173.019 52.4084 172.904C52.2935 172.79 52.2361 172.647 52.2361 172.478C52.2361 172.309 52.2935 172.166 52.4084 172.051C52.5232 171.937 52.6654 171.879 52.835 171.879C52.999 171.879 53.1385 171.937 53.2533 172.051C53.3682 172.166 53.4256 172.309 53.4256 172.478C53.4256 172.647 53.3682 172.79 53.2533 172.904C53.1385 173.019 52.999 173.077 52.835 173.077ZM53.2944 173.675V178.194H52.3591V173.675H53.2944ZM56.4173 174.438H55.5805V178.194H54.6371V174.438H54.1039V173.675H54.6371V173.355C54.6371 172.836 54.7738 172.459 55.0473 172.224C55.3262 171.983 55.761 171.863 56.3517 171.863V172.642C56.0672 172.642 55.8677 172.696 55.7528 172.806C55.638 172.91 55.5805 173.093 55.5805 173.355V173.675H56.4173V174.438ZM61.3398 173.675V178.194H60.4045V177.661C60.2569 177.847 60.0628 177.994 59.8221 178.104C59.5869 178.208 59.3353 178.26 59.0673 178.26C58.7118 178.26 58.3919 178.186 58.1075 178.038C57.8286 177.891 57.6071 177.672 57.443 177.382C57.2844 177.092 57.2051 176.743 57.2051 176.333V173.675H58.1321V176.193C58.1321 176.598 58.2333 176.91 58.4357 177.128C58.638 177.341 58.9142 177.448 59.2642 177.448C59.6142 177.448 59.8905 177.341 60.0928 177.128C60.3007 176.91 60.4045 176.598 60.4045 176.193V173.675H61.3398ZM64.3949 173.601C64.745 173.601 65.054 173.672 65.3219 173.815C65.5954 173.951 65.8087 174.123 65.9618 174.331V173.675H66.9053V178.268C66.9053 178.683 66.8178 179.052 66.6427 179.375C66.4678 179.703 66.2135 179.961 65.8798 180.146C65.5517 180.332 65.1579 180.425 64.6985 180.425C64.0859 180.425 63.5773 180.28 63.1726 179.99C62.7679 179.706 62.5382 179.318 62.4834 178.826H63.4105C63.4816 179.061 63.632 179.249 63.8617 179.392C64.0969 179.539 64.3758 179.613 64.6985 179.613C65.0758 179.613 65.3794 179.498 65.6091 179.269C65.8443 179.039 65.9618 178.706 65.9618 178.268V177.514C65.8033 177.727 65.5872 177.907 65.3137 178.055C65.0458 178.197 64.7395 178.268 64.3949 178.268C64.0011 178.268 63.6402 178.17 63.312 177.973C62.9894 177.771 62.7323 177.492 62.5409 177.136C62.355 176.775 62.2619 176.368 62.2619 175.914C62.2619 175.46 62.355 175.058 62.5409 174.709C62.7323 174.359 62.9894 174.088 63.312 173.897C63.6402 173.7 64.0011 173.601 64.3949 173.601ZM65.9618 175.931C65.9618 175.619 65.8962 175.348 65.7649 175.119C65.6392 174.889 65.4724 174.714 65.2645 174.594C65.0567 174.474 64.8325 174.413 64.5918 174.413C64.3512 174.413 64.127 174.474 63.9191 174.594C63.7113 174.709 63.5417 174.881 63.4105 175.111C63.2847 175.335 63.2218 175.603 63.2218 175.914C63.2218 176.226 63.2847 176.5 63.4105 176.734C63.5417 176.969 63.7113 177.15 63.9191 177.276C64.1324 177.396 64.3567 177.456 64.5918 177.456C64.8325 177.456 65.0567 177.396 65.2645 177.276C65.4724 177.156 65.6392 176.98 65.7649 176.751C65.8962 176.516 65.9618 176.242 65.9618 175.931ZM67.8219 175.914C67.8219 175.46 67.9149 175.058 68.1008 174.709C68.2923 174.359 68.5494 174.088 68.872 173.897C69.2001 173.7 69.5611 173.601 69.9549 173.601C70.3104 173.601 70.6194 173.672 70.8819 173.815C71.15 173.951 71.3633 174.123 71.5218 174.331V173.675H72.4652V178.194H71.5218V177.522C71.3633 177.735 71.1472 177.912 70.8737 178.055C70.6003 178.197 70.2886 178.268 69.9385 178.268C69.5502 178.268 69.1947 178.17 68.872 177.973C68.5494 177.771 68.2923 177.492 68.1008 177.136C67.9149 176.775 67.8219 176.368 67.8219 175.914ZM71.5218 175.931C71.5218 175.619 71.4562 175.348 71.3249 175.119C71.1992 174.889 71.0323 174.714 70.8245 174.594C70.6167 174.474 70.3925 174.413 70.1518 174.413C69.9112 174.413 69.6869 174.474 69.4791 174.594C69.2713 174.709 69.1017 174.881 68.9704 175.111C68.8447 175.335 68.7818 175.603 68.7818 175.914C68.7818 176.226 68.8447 176.5 68.9704 176.734C69.1017 176.969 69.2713 177.15 69.4791 177.276C69.6924 177.396 69.9166 177.456 70.1518 177.456C70.3925 177.456 70.6167 177.396 70.8245 177.276C71.0323 177.156 71.1992 176.98 71.3249 176.751C71.4562 176.516 71.5218 176.242 71.5218 175.931ZM74.6286 172.125V178.194H73.6936V172.125H74.6286ZM77.6454 175.939L79.7291 178.194H78.4657L76.7922 176.251V178.194H75.857V172.125H76.7922V175.652L78.4329 173.675H79.7291L77.6454 175.939ZM81.3348 174.331C81.4713 174.102 81.6518 173.924 81.8763 173.798C82.106 173.667 82.3767 173.601 82.6884 173.601V174.569H82.4505C82.0836 174.569 81.8047 174.662 81.6138 174.848C81.4273 175.034 81.3348 175.357 81.3348 175.816V178.194H80.3996V173.675H81.3348V174.331ZM83.2359 175.914C83.2359 175.46 83.3291 175.058 83.5148 174.709C83.7064 174.359 83.9637 174.088 84.2859 173.897C84.6141 173.7 84.975 173.601 85.3688 173.601C85.7246 173.601 86.0333 173.672 86.2958 173.815C86.5643 173.951 86.7776 174.123 86.9357 174.331V173.675H87.8792V178.194H86.9357V177.522C86.7776 177.735 86.5614 177.912 86.2876 178.055C86.0147 178.197 85.7029 178.268 85.3524 178.268C84.9646 178.268 84.6089 178.17 84.2859 177.973C83.9637 177.771 83.7064 177.492 83.5148 177.136C83.3291 176.775 83.2359 176.368 83.2359 175.914ZM86.9357 175.931C86.9357 175.619 86.8701 175.348 86.7388 175.119C86.6136 174.889 86.4465 174.714 86.2384 174.594C86.0311 174.474 85.8066 174.413 85.5657 174.413C85.3256 174.413 85.1011 174.474 84.893 174.594C84.6857 174.709 84.5156 174.881 84.3844 175.111C84.2591 175.335 84.1957 175.603 84.1957 175.914C84.1957 176.226 84.2591 176.5 84.3844 176.734C84.5156 176.969 84.6857 177.15 84.893 177.276C85.1063 177.396 85.3308 177.456 85.5657 177.456C85.8066 177.456 86.0311 177.396 86.2384 177.276C86.4465 177.156 86.6136 176.98 86.7388 176.751C86.8701 176.516 86.9357 176.242 86.9357 175.931ZM91.0026 174.438H90.1658V178.194H89.2223V174.438H88.6891V173.675H89.2223V173.355C89.2223 172.836 89.3596 172.459 89.6325 172.224C89.9115 171.983 90.3463 171.863 90.9369 171.863V172.642C90.6528 172.642 90.4529 172.696 90.3381 172.806C90.2232 172.91 90.1658 173.093 90.1658 173.355V173.675H91.0026V174.438ZM92.923 174.438V176.939C92.923 177.109 92.961 177.232 93.0378 177.309C93.1199 177.379 93.2563 177.415 93.448 177.415H94.0223V178.194H93.2839C92.8626 178.194 92.5396 178.096 92.3159 177.899C92.0914 177.702 91.9795 177.382 91.9795 176.939V174.438H91.4463V173.675H91.9795V172.552H92.923V173.675H94.0223V174.438H92.923Z" fill="#8FDD51"/>
<path d="M25.357 191.615L17.899 187.31V195.92L25.357 191.615ZM11.1869 192.36H18.6448V190.869H11.1869V192.36Z" fill="#DD7351"/>
<path d="M37.198 188.152V193.852H36.2628V189.948L34.5236 193.852H33.8755L32.1281 189.948V193.852H31.1929V188.152H32.2019L34.2036 192.621L36.1972 188.152H37.198ZM40.3879 193.925C39.9613 193.925 39.5757 193.83 39.2312 193.638C38.8866 193.441 38.6159 193.168 38.419 192.818C38.2221 192.463 38.1237 192.052 38.1237 191.588C38.1237 191.129 38.2249 190.722 38.4272 190.366C38.6296 190.01 38.9058 189.737 39.2558 189.546C39.6058 189.354 39.9969 189.259 40.4289 189.259C40.861 189.259 41.2521 189.354 41.6021 189.546C41.9521 189.737 42.2283 190.01 42.4306 190.366C42.633 190.722 42.7342 191.129 42.7342 191.588C42.7342 192.047 42.6303 192.454 42.4224 192.81C42.2146 193.166 41.9302 193.441 41.5693 193.638C41.2137 193.83 40.82 193.925 40.3879 193.925ZM40.3879 193.113C40.6286 193.113 40.8528 193.056 41.0606 192.941C41.2739 192.826 41.4462 192.654 41.5775 192.424C41.7087 192.195 41.7743 191.916 41.7743 191.588C41.7743 191.26 41.7115 190.984 41.5857 190.76C41.4598 190.53 41.2931 190.358 41.0852 190.243C40.8774 190.128 40.6532 190.071 40.4125 190.071C40.1719 190.071 39.9477 190.128 39.7398 190.243C39.5375 190.358 39.3761 190.53 39.2558 190.76C39.1355 190.984 39.0753 191.26 39.0753 191.588C39.0753 192.075 39.1984 192.452 39.4445 192.72C39.696 192.982 40.0105 193.113 40.3879 193.113ZM45.9393 189.259C46.2948 189.259 46.612 189.333 46.8909 189.48C47.1754 189.628 47.3969 189.846 47.5555 190.136C47.7141 190.426 47.7934 190.776 47.7934 191.186V193.852H46.8663V191.325C46.8663 190.921 46.7652 190.612 46.5628 190.399C46.3605 190.18 46.0843 190.071 45.7342 190.071C45.3842 190.071 45.1053 190.18 44.8974 190.399C44.6951 190.612 44.5939 190.921 44.5939 191.325V193.852H43.6587V189.333H44.5939V189.849C44.7471 189.664 44.9412 189.518 45.1764 189.415C45.417 189.311 45.6714 189.259 45.9393 189.259ZM48.6746 191.572C48.6746 191.117 48.7676 190.716 48.9535 190.366C49.145 190.016 49.402 189.746 49.7247 189.554C50.0528 189.357 50.4165 189.259 50.8158 189.259C51.1111 189.259 51.401 189.324 51.6854 189.456C51.9753 189.582 52.205 189.751 52.3745 189.964V187.782H53.3179V193.852H52.3745V193.171C52.2214 193.389 52.0081 193.57 51.7346 193.712C51.4666 193.854 51.1576 193.925 50.8076 193.925C50.4138 193.925 50.0528 193.827 49.7247 193.63C49.402 193.428 49.145 193.149 48.9535 192.794C48.7676 192.433 48.6746 192.026 48.6746 191.572ZM52.3745 191.588C52.3745 191.276 52.3088 191.006 52.1776 190.776C52.0518 190.546 51.885 190.371 51.6772 190.251C51.4693 190.131 51.2451 190.071 51.0044 190.071C50.7638 190.071 50.5396 190.131 50.3317 190.251C50.1239 190.366 49.9544 190.538 49.8231 190.768C49.6973 190.992 49.6344 191.26 49.6344 191.572C49.6344 191.883 49.6973 192.157 49.8231 192.392C49.9544 192.627 50.1239 192.807 50.3317 192.933C50.545 193.053 50.7693 193.113 51.0044 193.113C51.2451 193.113 51.4693 193.053 51.6772 192.933C51.885 192.813 52.0518 192.638 52.1776 192.408C52.3088 192.173 52.3745 191.9 52.3745 191.588ZM54.2346 191.572C54.2346 191.117 54.3275 190.716 54.5135 190.366C54.7049 190.016 54.9619 189.746 55.2846 189.554C55.6128 189.357 55.9738 189.259 56.3675 189.259C56.723 189.259 57.032 189.33 57.2946 189.472C57.5625 189.608 57.7758 189.781 57.9344 189.989V189.333H58.8779V193.852H57.9344V193.179C57.7758 193.392 57.5598 193.57 57.2864 193.712C57.0129 193.854 56.7011 193.925 56.3511 193.925C55.9628 193.925 55.6073 193.827 55.2846 193.63C54.9619 193.428 54.7049 193.149 54.5135 192.794C54.3275 192.433 54.2346 192.026 54.2346 191.572ZM57.9344 191.588C57.9344 191.276 57.8688 191.006 57.7376 190.776C57.6117 190.546 57.4449 190.371 57.2371 190.251C57.0293 190.131 56.805 190.071 56.5644 190.071C56.3238 190.071 56.0995 190.131 55.8917 190.251C55.6839 190.366 55.5143 190.538 55.3831 190.768C55.2573 190.992 55.1944 191.26 55.1944 191.572C55.1944 191.883 55.2573 192.157 55.3831 192.392C55.5143 192.627 55.6839 192.807 55.8917 192.933C56.105 193.053 56.3292 193.113 56.5644 193.113C56.805 193.113 57.0293 193.053 57.2371 192.933C57.4449 192.813 57.6117 192.638 57.7376 192.408C57.8688 192.173 57.9344 191.9 57.9344 191.588ZM62.3869 189.259C62.7424 189.259 63.0596 189.333 63.3385 189.48C63.6229 189.628 63.8444 189.846 64.0031 190.136C64.1616 190.426 64.241 190.776 64.241 191.186V193.852H63.3139V191.325C63.3139 190.921 63.2127 190.612 63.0104 190.399C62.808 190.18 62.5318 190.071 62.1818 190.071C61.8317 190.071 61.5528 190.18 61.345 190.399C61.1426 190.612 61.0415 190.921 61.0415 191.325V193.852H60.1063V189.333H61.0415V189.849C61.1946 189.664 61.3887 189.518 61.624 189.415C61.8646 189.311 62.1189 189.259 62.3869 189.259ZM66.2624 193.089H68.3134V193.852H65.1795V193.089L67.2387 190.095H65.1795V189.333H68.3134V190.095L66.2624 193.089ZM69.7712 188.734C69.6017 188.734 69.4594 188.676 69.3446 188.562C69.2297 188.447 69.1723 188.304 69.1723 188.135C69.1723 187.966 69.2297 187.823 69.3446 187.709C69.4594 187.594 69.6017 187.536 69.7712 187.536C69.9352 187.536 70.0747 187.594 70.1896 187.709C70.3044 187.823 70.3618 187.966 70.3618 188.135C70.3618 188.304 70.3044 188.447 70.1896 188.562C70.0747 188.676 69.9352 188.734 69.7712 188.734ZM70.2306 189.333V193.852H69.2954V189.333H70.2306ZM75.6012 191.481C75.6012 191.651 75.5908 191.804 75.5684 191.941H72.1148C72.1421 192.301 72.2761 192.591 72.5167 192.81C72.7574 193.028 73.0527 193.138 73.4027 193.138C73.9059 193.138 74.2615 192.928 74.4692 192.506H75.4781C75.3417 192.922 75.0926 193.264 74.7316 193.532C74.3763 193.794 73.9333 193.925 73.4027 193.925C72.9707 193.925 72.5824 193.83 72.2378 193.638C71.8988 193.441 71.6307 193.168 71.4338 192.818C71.2425 192.463 71.1467 192.052 71.1467 191.588C71.1467 191.123 71.2397 190.716 71.4256 190.366C71.6171 190.01 71.8824 189.737 72.2214 189.546C72.566 189.354 72.9597 189.259 73.4027 189.259C73.8293 189.259 74.2095 189.352 74.5431 189.538C74.877 189.723 75.1366 189.986 75.3223 190.325C75.5087 190.658 75.6012 191.044 75.6012 191.481ZM74.6249 191.186C74.6197 190.842 74.4966 190.566 74.2559 190.358C74.0153 190.15 73.7172 190.046 73.3617 190.046C73.0391 190.046 72.7629 190.15 72.5331 190.358C72.3034 190.56 72.1667 190.836 72.123 191.186H74.6249ZM78.8596 189.259C79.2041 189.259 79.5106 189.333 79.7784 189.48C80.0521 189.628 80.2654 189.846 80.4183 190.136C80.5771 190.426 80.6562 190.776 80.6562 191.186V193.852H79.7292V191.325C79.7292 190.921 79.6285 190.612 79.4256 190.399C79.2235 190.18 78.9476 190.071 78.5971 190.071C78.2473 190.071 77.9683 190.18 77.7603 190.399C77.5582 190.612 77.4567 190.921 77.4567 191.325V193.852H76.5215V187.782H77.4567V189.857C77.6156 189.666 77.8155 189.518 78.0556 189.415C78.3017 189.311 78.5702 189.259 78.8596 189.259ZM85.9431 189.333V193.852H85.0079V193.318C84.8602 193.504 84.6663 193.652 84.4254 193.761C84.1905 193.865 83.9384 193.917 83.6707 193.917C83.315 193.917 82.995 193.843 82.7109 193.696C82.4319 193.548 82.2104 193.33 82.0463 193.04C81.8875 192.75 81.8084 192.4 81.8084 191.99V189.333H82.7355V191.85C82.7355 192.255 82.8369 192.567 83.039 192.785C83.2411 192.999 83.5178 193.105 83.8676 193.105C84.2174 193.105 84.4941 192.999 84.6962 192.785C84.9042 192.567 85.0079 192.255 85.0079 191.85V189.333H85.9431ZM89.4573 189.259C89.813 189.259 90.13 189.333 90.4089 189.48C90.6938 189.628 90.9153 189.846 91.0734 190.136C91.2323 190.426 91.3114 190.776 91.3114 191.186V193.852H90.3843V191.325C90.3843 190.921 90.2837 190.612 90.0808 190.399C89.8787 190.18 89.6027 190.071 89.2522 190.071C88.9024 190.071 88.6235 190.18 88.4154 190.399C88.2133 190.612 88.1119 190.921 88.1119 191.325V193.852H87.1767V189.333H88.1119V189.849C88.2655 189.664 88.4594 189.518 88.6944 189.415C88.9353 189.311 89.1896 189.259 89.4573 189.259ZM94.3259 189.259C94.6756 189.259 94.9851 189.33 95.2529 189.472C95.5266 189.608 95.7399 189.781 95.8928 189.989V189.333H96.8362V193.925C96.8362 194.341 96.7489 194.71 96.5737 195.033C96.3984 195.361 96.1441 195.618 95.8107 195.803C95.4826 195.989 95.0888 196.082 94.6294 196.082C94.0171 196.082 93.5085 195.938 93.1035 195.648C92.6985 195.364 92.4688 194.975 92.4144 194.483H93.3414C93.4123 194.718 93.5629 194.907 93.7926 195.049C94.0275 195.197 94.3065 195.27 94.6294 195.27C95.0068 195.27 95.3103 195.156 95.54 194.926C95.7749 194.696 95.8928 194.363 95.8928 193.925V193.171C95.7339 193.384 95.5184 193.564 95.2447 193.712C94.9769 193.854 94.6704 193.925 94.3259 193.925C93.9321 193.925 93.5711 193.827 93.243 193.63C92.92 193.428 92.6635 193.149 92.4718 192.794C92.2861 192.433 92.1929 192.026 92.1929 191.572C92.1929 191.117 92.2861 190.716 92.4718 190.366C92.6635 190.016 92.92 189.746 93.243 189.554C93.5711 189.357 93.9321 189.259 94.3259 189.259ZM95.8928 191.588C95.8928 191.276 95.8271 191.006 95.6959 190.776C95.5698 190.546 95.4035 190.371 95.1954 190.251C94.9874 190.131 94.7636 190.071 94.5227 190.071C94.2819 190.071 94.0581 190.131 93.85 190.251C93.642 190.366 93.4727 190.538 93.3414 190.768C93.2154 190.992 93.1527 191.26 93.1527 191.572C93.1527 191.883 93.2154 192.157 93.3414 192.392C93.4727 192.627 93.642 192.807 93.85 192.933C94.0633 193.053 94.2878 193.113 94.5227 193.113C94.7636 193.113 94.9874 193.053 95.1954 192.933C95.4035 192.813 95.5698 192.638 95.6959 192.408C95.8271 192.173 95.8928 191.9 95.8928 191.588ZM99.7053 193.925C99.3495 193.925 99.0296 193.863 98.7454 193.737C98.4665 193.605 98.245 193.43 98.0809 193.212C97.9169 192.987 97.8296 192.739 97.8184 192.465H98.7864C98.8029 192.657 98.8931 192.818 99.0572 192.949C99.2265 193.075 99.4375 193.138 99.6889 193.138C99.9514 193.138 100.153 193.089 100.296 192.99C100.444 192.887 100.517 192.755 100.517 192.597C100.517 192.427 100.435 192.301 100.271 192.219C100.112 192.137 99.8582 192.047 99.5084 191.949C99.169 191.856 98.8931 191.765 98.6798 191.678C98.4665 191.591 98.2808 191.457 98.1219 191.276C97.9691 191.096 97.8923 190.858 97.8923 190.563C97.8923 190.322 97.9631 190.103 98.1055 189.907C98.248 189.705 98.4501 189.546 98.7126 189.431C98.9804 189.316 99.2869 189.259 99.6314 189.259C100.145 189.259 100.558 189.39 100.87 189.652C101.187 189.91 101.357 190.262 101.379 190.71H100.444C100.427 190.508 100.345 190.347 100.198 190.226C100.05 190.106 99.85 190.046 99.5986 190.046C99.3525 190.046 99.1638 190.092 99.0326 190.185C98.9013 190.279 98.8357 190.402 98.8357 190.555C98.8357 190.675 98.8797 190.776 98.9669 190.858C99.0542 190.94 99.1608 191.006 99.2869 191.055C99.4129 191.099 99.5986 191.156 99.8447 191.227C100.173 191.314 100.441 191.405 100.649 191.498C100.862 191.585 101.045 191.716 101.198 191.891C101.351 192.067 101.431 192.298 101.436 192.588C101.436 192.846 101.365 193.075 101.223 193.277C101.081 193.479 100.878 193.638 100.616 193.753C100.359 193.868 100.055 193.925 99.7053 193.925ZM104.235 191.596L106.319 193.852H105.056L103.382 191.908V193.852H102.447V187.782H103.382V191.309L105.023 189.333H106.319L104.235 191.596ZM107.925 189.989C108.061 189.759 108.242 189.582 108.466 189.456C108.696 189.324 108.967 189.259 109.278 189.259V190.226H109.04C108.674 190.226 108.395 190.32 108.204 190.505C108.018 190.691 107.925 191.014 107.925 191.473V193.852H106.989V189.333H107.925V189.989ZM109.826 191.572C109.826 191.117 109.919 190.716 110.105 190.366C110.296 190.016 110.554 189.746 110.877 189.554C111.205 189.357 111.566 189.259 111.959 189.259C112.314 189.259 112.624 189.33 112.886 189.472C113.154 189.608 113.367 189.781 113.526 189.989V189.333H114.47V193.852H113.526V193.179C113.367 193.392 113.151 193.57 112.878 193.712C112.605 193.854 112.293 193.925 111.943 193.925C111.554 193.925 111.199 193.827 110.877 193.63C110.554 193.428 110.296 193.149 110.105 192.794C109.919 192.433 109.826 192.026 109.826 191.572ZM113.526 191.588C113.526 191.276 113.461 191.006 113.329 190.776C113.203 190.546 113.036 190.371 112.829 190.251C112.621 190.131 112.396 190.071 112.156 190.071C111.915 190.071 111.691 190.131 111.484 190.251C111.276 190.366 111.106 190.538 110.975 190.768C110.849 190.992 110.786 191.26 110.786 191.572C110.786 191.883 110.849 192.157 110.975 192.392C111.106 192.627 111.276 192.807 111.484 192.933C111.697 193.053 111.921 193.113 112.156 193.113C112.396 193.113 112.621 193.053 112.829 192.933C113.036 192.813 113.203 192.638 113.329 192.408C113.461 192.173 113.526 191.9 113.526 191.588ZM117.593 190.095H116.756V193.852H115.813V190.095H115.28V189.333H115.813V189.013C115.813 188.493 115.949 188.116 116.223 187.881C116.502 187.64 116.937 187.52 117.528 187.52V188.299C117.243 188.299 117.043 188.354 116.929 188.463C116.814 188.567 116.756 188.75 116.756 189.013V189.333H117.593V190.095ZM119.513 190.095V192.597C119.513 192.766 119.551 192.889 119.628 192.966C119.71 193.037 119.846 193.072 120.038 193.072H120.612V193.852H119.874C119.452 193.852 119.13 193.753 118.906 193.556C118.681 193.359 118.569 193.04 118.569 192.597V190.095H118.036V189.333H118.569V188.209H119.513V189.333H120.612V190.095H119.513Z" fill="#DD7351"/>
<path d="M220.009 108.109C221.245 108.109 222.247 107.108 222.247 105.873C222.247 104.637 221.245 103.636 220.009 103.636C218.774 103.636 217.772 104.637 217.772 105.873C217.772 107.108 218.774 108.109 220.009 108.109Z" fill="white"/>
</svg>
