<svg width="19" height="20" viewBox="0 0 19 20" fill="none" xmlns="http://www.w3.org/2000/svg">
<mask id="mask0_418_11" style="mask-type:alpha" maskUnits="userSpaceOnUse" x="1" y="4" width="13" height="13">
<path fill-rule="evenodd" clip-rule="evenodd" d="M1.5835 4.13647H13.8546V16.9601H1.5835V4.13647Z" fill="white"/>
</mask>
<g mask="url(#mask0_418_11)">
<path fill-rule="evenodd" clip-rule="evenodd" d="M5.42079 5.37848C5.07325 5.37848 4.84921 5.37848 4.81041 5.38013C4.22616 5.40578 3.68704 5.66471 3.29833 6.10812C2.93575 6.52257 2.74891 7.05202 2.77346 7.60132C2.77346 9.99458 2.77425 13.5865 2.77979 13.7834C2.87004 14.9292 3.89762 15.8052 5.07404 15.7109C7.25112 15.7142 10.4764 15.7217 10.6276 15.7159C11.2095 15.6911 11.7494 15.433 12.1381 14.9904C12.5015 14.5776 12.6883 14.0481 12.6653 13.5013C12.6645 13.4922 12.6645 13.4831 12.6645 13.474C12.6653 11.1081 12.6653 7.51859 12.6598 7.32584C12.5703 6.1743 11.538 5.28748 10.3552 5.38427C8.71966 5.38178 6.48796 5.37848 5.42079 5.37848ZM4.86583 16.9601C3.19225 16.9609 1.73241 15.6208 1.59466 13.8628C1.59229 13.8289 1.58437 13.7255 1.58675 7.62944C1.54875 6.77654 1.84483 5.92943 2.42275 5.2701C3.026 4.58183 3.85804 4.18061 4.76608 4.14007C4.87612 4.1318 8.68246 4.14172 10.3125 4.14503C12.0937 4.01433 13.7016 5.39585 13.8449 7.24973C13.8512 7.3399 13.8536 9.42873 13.852 13.4616C13.8853 14.3352 13.5876 15.1765 13.0129 15.8301C12.4088 16.5175 11.576 16.9171 10.6687 16.956C10.5579 16.9642 6.75 16.9535 5.11758 16.9502C5.03366 16.9568 4.94975 16.9601 4.86583 16.9601Z" fill="#C7C7C7"/>
</g>
<path fill-rule="evenodd" clip-rule="evenodd" d="M16.4813 15.1796C16.1243 15.1796 15.772 15.0514 15.4815 14.8024L12.884 12.5721C12.6307 12.3545 12.5942 11.9632 12.8025 11.6985C13.0099 11.4346 13.3843 11.3949 13.6377 11.6133L16.2343 13.8436C16.4093 13.9925 16.585 13.9312 16.6531 13.8965C16.7212 13.8634 16.8787 13.76 16.8787 13.5251L16.8882 7.44554C16.889 7.2106 16.7307 7.1072 16.6626 7.07328C16.5953 7.04019 16.4172 6.97814 16.2438 7.12705L13.6369 9.35651C13.382 9.57408 13.0091 9.5352 12.8017 9.26882C12.5935 9.0041 12.6315 8.61363 12.8848 8.39689L15.4917 6.1666C15.9699 5.75711 16.6135 5.67687 17.1717 5.95234C17.7298 6.22947 18.0765 6.80194 18.0757 7.4472L18.0662 13.5267C18.0655 14.172 17.7179 14.7444 17.1606 15.0191C16.9421 15.1275 16.7109 15.1796 16.4813 15.1796Z" fill="#C7C7C7"/>
</svg>
