<svg width="31" height="31" viewBox="0 0 31 31" fill="none" xmlns="http://www.w3.org/2000/svg">
<circle cx="15.5" cy="15.5" r="15.5" fill="#4983F8"/>
<path d="M13.7778 0.1118C13.7778 0.1118 13.7778 6.13203e-05 16.7917 1.20286e-09C18.0834 -2.62784e-05 18.9445 0.430567 18.9445 0.430567C18.9445 0.430567 19.8056 1.61042 18.5139 2.15278C17.3115 2.65769 17.3691 2.01879 16.7917 1.83402C16.1511 1.62904 15.6045 1.81107 15.0695 1.40347C14.5181 0.983318 13.7778 0.1118 13.7778 0.1118Z" fill="white"/>
<path d="M8.23484 2.15272C8.23484 3.67165 9.90282 1.72217 9.90282 1.72217C9.90282 1.72217 12.7276 2.79172 13.3472 3.01383C14.3784 3.38346 15.9306 3.01383 15.9306 3.01383C15.9306 3.01383 18.0834 3.8621 18.0834 4.73606C18.0834 5.61001 17.1837 8.28649 17.1837 8.28649C17.1837 8.28649 15.0985 9.09349 14.8243 10.0248C14.6788 10.5187 15.5 11.1944 15.5 11.1944L16.7118 12.6563C16.7118 12.6563 15.2961 13.0837 14.8243 13.0933C14.3524 13.1029 12.9167 12.0555 12.9167 12.0555C12.9167 12.0555 12.0969 11.1944 11.625 11.1944C11.1531 11.1944 10.3334 12.0491 10.3334 12.4861C10.3334 12.923 12.8849 14.3946 12.8849 14.3946C12.8849 14.3946 13.4782 14.1348 13.8805 14.052C14.2403 13.978 14.8243 14.1063 14.8243 14.1063L14.639 15.4999L15.8415 15.9305C15.8415 15.9305 17.5702 15.9305 18.514 15.9305C19.4578 15.9305 21.8543 17.3342 23.3184 18.3275C24.3696 19.0406 24.9723 20.2361 24.9723 20.2361C24.9723 20.2361 25.0137 22.3824 24.5418 22.8194C24.0699 23.2564 22.389 25.8333 22.389 25.8333C22.389 25.8333 17.305 30.9999 16.3612 30.9999C15.4174 30.9999 14.639 29.7083 14.639 29.7083C14.639 29.7083 15.5542 28.377 15.9306 27.1249C16.2313 26.1249 16.8331 24.548 16.3612 24.1111C15.8893 23.6741 13.6891 22.1608 13.3473 21.5277C13.0055 20.8946 13.8192 17.2382 13.3473 16.7916C12.8754 16.345 11.8345 16.2926 10.5772 15.7152C9.24611 15.1039 7.54032 14.052 7.54032 14.052C7.54032 14.052 6.97796 12.2522 6.02784 11.1944C5.52786 10.6378 4.77749 9.90914 4.30559 9.47217C3.8337 9.03519 3.87507 7.32581 3.87507 6.88883C3.87507 6.45186 4.94895 5.9957 5.16673 5.16661C5.2974 4.66916 4.79039 4.30551 4.79039 4.30551L6.51261 3.01385L8.23484 2.15272Z" fill="#4D86CB" fill-opacity="0.35"/>
<path d="M8.6111 1.73161C9.99285 1.61646 12.0555 2.59272 12.0555 2.59272C12.0555 2.59272 12.7818 3.23498 13.3472 3.45383C14.288 3.81802 15.9305 3.45383 15.9305 3.45383C15.9305 3.45383 17.6528 3.88439 17.6528 4.7455C17.6528 5.6066 16.7917 8.18994 16.7917 8.18994C16.7917 8.18994 14.8891 8.98508 14.6389 9.90272C14.5062 10.3894 15.0694 11.2038 15.0694 11.2038L16.3611 12.4955C16.3611 12.4955 15.0694 12.9166 14.6389 12.9261C14.2083 12.9355 12.9167 11.6344 12.9167 11.6344C12.9167 11.6344 12.0555 10.7733 11.625 10.7733C11.1944 10.7733 9.90276 12.0649 9.90276 12.4955C9.90276 12.926 12.9167 14.6388 12.9167 14.6388C12.9167 14.6388 13.4107 14.2898 13.7778 14.2083C14.106 14.1353 14.6389 14.2083 14.6389 14.2083L14.2083 15.4999L15.5 16.3705C15.5 16.3705 17.6528 16.3611 18.5139 16.3611C19.375 16.3611 21.053 17.1046 22.3889 18.0833C23.348 18.7859 24.5417 20.2361 24.5417 20.2361C24.5417 20.2361 24.9722 21.9583 24.5417 22.3888C24.1111 22.8194 21.9583 25.8333 21.9583 25.8333C21.9583 25.8333 17.2222 30.5694 16.3611 30.5694C15.5 30.5694 15.0694 29.7083 15.0694 29.7083C15.0694 29.7083 16.0176 27.928 16.3611 26.6944C16.6354 25.7091 17.2222 24.5416 16.7917 24.1111C16.3611 23.6805 14.2083 22.3888 13.7778 21.5277C13.3472 20.6666 14.2083 17.2411 13.7778 16.8011C13.3472 16.3611 11.9111 16.0783 10.7639 15.5094C9.54942 14.9071 7.74999 13.7872 7.74999 13.7872C7.74999 13.7872 6.89465 11.8155 6.02776 10.7733C5.57158 10.2248 5.16665 9.91216 4.7361 9.48161C4.30554 9.05106 4.30554 7.32883 4.30554 6.89828C4.30554 6.46773 5.39851 5.99295 5.59721 5.17605C5.71643 4.68592 5.16665 3.87495 5.16665 3.87495L6.88888 2.59272C6.88888 2.59272 7.92022 1.78918 8.6111 1.73161Z" fill="#97C959"/>
</svg>
