<svg width="136" height="91" viewBox="0 0 136 91" fill="none" xmlns="http://www.w3.org/2000/svg">
<path d="M68.1363 0.00272194C118.148 -0.406156 136 45.3815 136 45.3815C136 45.3815 118.83 90.8965 68.1363 90.8965C17.4429 90.8966 0 45.3815 0 45.3815C0 45.3815 18.1242 0.4116 68.1363 0.00272194Z" fill="#FDB513"/>
<path d="M31.0701 21.3049C31.0701 21.3049 35.0666 19.7101 36.7936 17.7155C38.408 15.851 39.4636 11.9921 39.4636 11.9921C39.4636 11.9921 41.0652 15.9884 43.0621 17.7155C44.9251 19.3269 48.7764 20.3856 48.7764 20.3856C48.7764 20.3856 44.7858 21.7891 43.0621 23.7115C41.3522 25.6186 40.3829 29.6984 40.3829 29.6984C40.3829 29.6984 38.8869 25.4577 36.7936 23.7115C34.9316 22.1584 31.0701 21.3049 31.0701 21.3049Z" fill="#18171F"/>
<path d="M16.6252 36.8149C16.6252 36.8149 18.9736 35.8778 19.9884 34.7058C20.937 33.6102 21.5573 31.3427 21.5573 31.3427C21.5573 31.3427 22.4984 33.6909 23.6718 34.7058C24.7665 35.6526 27.0296 36.2747 27.0296 36.2747C27.0296 36.2747 24.6847 37.0994 23.6718 38.2291C22.667 39.3497 22.0975 41.747 22.0975 41.747C22.0975 41.747 21.2184 39.2551 19.9884 38.2291C18.8943 37.3164 16.6252 36.8149 16.6252 36.8149Z" fill="#18171F"/>
<path d="M99.2064 64.4966C99.2064 64.4966 101.738 63.4863 102.832 62.2228C103.855 61.0416 104.523 58.5972 104.523 58.5972C104.523 58.5972 105.538 61.1287 106.803 62.2228C107.983 63.2435 110.423 63.9142 110.423 63.9142C110.423 63.9142 107.895 64.8033 106.803 66.0211C105.72 67.2292 105.106 69.8136 105.106 69.8136C105.106 69.8136 104.158 67.1273 102.832 66.0211C101.653 65.0372 99.2064 64.4966 99.2064 64.4966Z" fill="#18171F"/>
<circle cx="67.8637" cy="44.6972" r="24.2565" fill="#18171F"/>
<mask id="path-6-inside-1_217_48" fill="white">
<ellipse cx="67.8722" cy="46.993" rx="49.4648" ry="10.9638" transform="rotate(-18.0287 67.8722 46.993)"/>
</mask>
<path d="M100.645 36.3263C99.3615 32.3834 100.385 29.1855 101.007 27.8316C101.584 26.5761 102.131 26.1268 101.8 26.466C101.163 27.1186 99.3729 28.5782 95.9122 30.6188C89.2056 34.5734 78.893 39.1614 66.6231 43.1549L75.9079 71.682C89.6153 67.2206 102.061 61.8202 111.15 56.4608C115.587 53.8444 119.954 50.8155 123.265 47.4241C124.908 45.7414 126.877 43.3813 128.266 40.3605C129.7 37.2415 130.924 32.424 129.172 27.0415L100.645 36.3263ZM66.6231 43.1549C54.3531 47.1485 43.3157 49.5094 35.5662 50.2599C31.5674 50.6471 29.2611 50.5208 28.3619 50.3683C27.8944 50.289 28.6011 50.3302 29.8066 51.0056C31.1065 51.7338 33.8163 53.7166 35.0996 57.6596L6.57257 66.9444C8.3244 72.3268 12.1497 75.5008 15.1445 77.1785C18.045 78.8034 21.0259 79.5524 23.3446 79.9457C28.0176 80.7384 33.3308 80.6167 38.4579 80.1202C48.9603 79.1031 62.2005 76.1434 75.9079 71.682L66.6231 43.1549ZM35.0996 57.6596C36.3829 61.6025 35.3594 64.8005 34.7371 66.1543C34.16 67.4098 33.613 67.8591 33.9443 67.5199C34.5815 66.8673 36.3715 65.4077 39.8323 63.3671C46.5388 59.4125 56.8515 54.8245 69.1214 50.831L59.8366 22.3039C46.1292 26.7653 33.6834 32.1657 24.5943 37.5252C20.1572 40.1415 15.7902 43.1705 12.479 46.5618C10.836 48.2445 8.86703 50.6046 7.47858 53.6254C6.04498 56.7444 4.82074 61.562 6.57257 66.9444L35.0996 57.6596ZM69.1214 50.831C81.3914 46.8374 92.4288 44.4765 100.178 43.7261C104.177 43.3388 106.483 43.4651 107.383 43.6177C107.85 43.697 107.143 43.6557 105.938 42.9803C104.638 42.2521 101.928 40.2693 100.645 36.3263L129.172 27.0415C127.42 21.6591 123.595 18.4851 120.6 16.8074C117.7 15.1826 114.719 14.4335 112.4 14.0402C107.727 13.2475 102.414 13.3693 97.2866 13.8657C86.7842 14.8828 73.544 17.8425 59.8366 22.3039L69.1214 50.831Z" fill="#18171F" mask="url(#path-6-inside-1_217_48)"/>
<ellipse cx="66.5598" cy="40.925" rx="26.6552" ry="17.6645" transform="rotate(-17.9594 66.5598 40.925)" fill="#FDB513"/>
<circle cx="67.8637" cy="44.6972" r="24.2565" fill="#18171F"/>
<path d="M51.511 62.8216C56.8599 61.8105 65.4803 59.9599 65.4803 59.9599L77.9479 56.9619L60.505 67.8637C60.505 67.8637 57.0441 68.1554 55 67C51.8657 65.2285 51.511 62.8216 51.511 62.8216Z" fill="#FDB513"/>
</svg>
