<svg width="82" height="36" viewBox="0 0 82 36" fill="none" xmlns="http://www.w3.org/2000/svg">
<circle cx="41" cy="18" r="18" fill="#F4D3AE"/>
<path d="M79.5 19.5C79.5 19.7973 79.2609 20.6564 77.3963 21.8928C75.6284 23.0652 72.9053 24.2179 69.3162 25.2246C62.1727 27.2283 52.1606 28.5 41 28.5C29.8394 28.5 19.8273 27.2283 12.6838 25.2246C9.09466 24.2179 6.37156 23.0652 4.60365 21.8928C2.73912 20.6564 2.5 19.7973 2.5 19.5C2.5 19.2027 2.73912 18.3436 4.60365 17.1072C6.37156 15.9348 9.09466 14.7821 12.6838 13.7754C19.8273 11.7717 29.8394 10.5 41 10.5C52.1606 10.5 62.1727 11.7717 69.3162 13.7754C72.9053 14.7821 75.6284 15.9348 77.3963 17.1072C79.2609 18.3436 79.5 19.2027 79.5 19.5Z" stroke="#F3E6C7" stroke-width="5"/>
<path d="M75.5 18.5C75.5 18.673 75.3548 19.4004 73.6995 20.5111C72.1348 21.5609 69.706 22.6042 66.4804 23.5196C60.0635 25.3406 51.054 26.5 41 26.5C30.946 26.5 21.9365 25.3406 15.5196 23.5196C12.294 22.6042 9.86524 21.5609 8.30053 20.5111C6.64518 19.4004 6.5 18.673 6.5 18.5C6.5 18.327 6.64518 17.5996 8.30053 16.4889C9.86524 15.4391 12.294 14.3958 15.5196 13.4804C21.9365 11.6594 30.946 10.5 41 10.5C51.054 10.5 60.0635 11.6594 66.4804 13.4804C69.706 14.3958 72.1348 15.4391 73.6995 16.4889C75.3548 17.5996 75.5 18.327 75.5 18.5Z" stroke="#F38F08" stroke-width="5"/>
<path d="M71.5 18L71.4999 18.001C71.4999 18.0017 71.4997 18.0034 71.4992 18.0063C71.4981 18.0118 71.4952 18.0253 71.4868 18.0478C71.4698 18.0934 71.428 18.1827 71.3299 18.3134C71.1239 18.5879 70.7306 18.9645 70.0519 19.4021C68.6868 20.2824 66.5457 21.1696 63.6767 21.9521C57.9745 23.5072 49.9562 24.5 41 24.5C32.0438 24.5 24.0255 23.5072 18.3233 21.9521C15.4543 21.1696 13.3132 20.2824 11.9481 19.4021C11.2694 18.9645 10.8761 18.5879 10.6701 18.3134C10.572 18.1827 10.5302 18.0934 10.5132 18.0478C10.5048 18.0253 10.5019 18.0118 10.5008 18.0063C10.5003 18.0034 10.5001 18.0017 10.5001 18.001L10.5 18L10.5001 17.999C10.5001 17.9983 10.5003 17.9966 10.5008 17.9937C10.5019 17.9882 10.5048 17.9747 10.5132 17.9522C10.5302 17.9066 10.572 17.8173 10.6701 17.6866C10.8761 17.4121 11.2694 17.0355 11.9481 16.5979C13.3132 15.7176 15.4543 14.8304 18.3233 14.0479C24.0255 12.4928 32.0438 11.5 41 11.5C49.9562 11.5 57.9745 12.4928 63.6767 14.0479C66.5457 14.8304 68.6868 15.7176 70.0519 16.5979C70.7306 17.0355 71.1239 17.4121 71.3299 17.6866C71.428 17.8173 71.4698 17.9066 71.4868 17.9522C71.4952 17.9747 71.4981 17.9882 71.4992 17.9937C71.4997 17.9966 71.4999 17.9983 71.4999 17.999L71.5 18Z" stroke="#F9BD73" stroke-width="5"/>
<path d="M59 14.4999C59 18.9999 61 20.9998 40.7536 20.9999C21 20.4999 22.8077 17.9998 23.5 13.4999C24.5 6.99983 31.5 3.49981 40.7536 2.9999C51.0864 2.4417 59 9 59 14.4999Z" fill="#F4D3AE"/>
</svg>
