<svg width="709" height="592" viewBox="0 0 709 592" fill="none" xmlns="http://www.w3.org/2000/svg">
<path fill-rule="evenodd" clip-rule="evenodd" d="M708 3.53315C677.039 1.20715 645.312 0 613 0C274.449 0 0 132.524 0 296C0 459.476 274.449 592 613 592C645.312 592 677.039 590.793 708 588.467V585.458C677.046 587.79 645.319 589 613 589C444.075 589 291.29 555.931 180.848 502.602C70.1954 449.171 3 375.934 3 296C3 216.066 70.1954 142.829 180.848 89.3979C291.29 36.0686 444.075 3 613 3C645.319 3 677.046 4.21042 708 6.54155V3.53315Z" fill="url(#paint0_linear_327_88)"/>
<path fill-rule="evenodd" clip-rule="evenodd" d="M708 47.8224C670.743 43.3599 631.909 41 592 41C311.439 41 84 157.63 84 301.5C84 445.37 311.439 562 592 562C631.909 562 670.743 559.64 708 555.178V552.156C670.76 556.631 631.925 559 592 559C452.095 559 325.584 529.914 234.159 483.032C142.575 436.068 87 371.726 87 301.5C87 231.274 142.575 166.932 234.159 119.968C325.584 73.0858 452.095 44 592 44C631.925 44 670.76 46.3687 708 50.8438V47.8224Z" fill="url(#paint1_linear_327_88)"/>
<path fill-rule="evenodd" clip-rule="evenodd" d="M708 117.53C672.744 111.985 635.302 109 596.5 109C386.908 109 217 196.081 217 303.5C217 410.919 386.908 498 596.5 498C635.302 498 672.744 495.015 708 489.47V485.927C672.781 491.497 635.337 494.5 596.5 494.5C492.142 494.5 397.836 472.813 329.749 437.918C261.477 402.927 220.5 355.215 220.5 303.5C220.5 251.785 261.477 204.073 329.749 169.082C397.836 134.187 492.142 112.5 596.5 112.5C635.337 112.5 672.781 115.503 708 121.073V117.53Z" fill="url(#paint2_linear_327_88)"/>
<path fill-rule="evenodd" clip-rule="evenodd" d="M593 80C633.154 80 672.049 82.7323 709 87.8501V91.3836C672.077 86.2466 633.181 83.5 593 83.5C472.206 83.5 363.02 108.323 284.162 148.291C205.109 188.358 157.5 243.073 157.5 302.5C157.5 361.927 205.109 416.642 284.162 456.709C363.02 496.677 472.206 521.5 593 521.5C633.181 521.5 672.077 518.753 709 513.616V517.15C672.049 522.268 633.154 525 593 525C350.547 525 154 425.383 154 302.5C154 179.617 350.547 80 593 80Z" fill="url(#paint3_linear_327_88)"/>
<path fill-rule="evenodd" clip-rule="evenodd" d="M709 147.042C675.014 141.183 638.506 138 600.5 138C417.97 138 270 211.425 270 302C270 392.575 417.97 466 600.5 466C638.506 466 675.014 462.817 709 456.958V452.391C675.075 458.286 638.563 461.5 600.5 461.5C509.777 461.5 427.866 443.243 368.801 413.935C309.458 384.487 274.5 344.647 274.5 302C274.5 259.353 309.458 219.513 368.801 190.065C427.866 160.757 509.777 142.5 600.5 142.5C638.563 142.5 675.075 145.714 709 151.609V147.042Z" fill="url(#paint4_linear_327_88)"/>
<path fill-rule="evenodd" clip-rule="evenodd" d="M709 172.385C675.357 165.055 638.351 161 599.5 161C444.584 161 319 225.471 319 305C319 384.529 444.584 449 599.5 449C638.351 449 675.357 444.945 709 437.615V433.008C675.453 440.395 638.438 444.5 599.5 444.5C522.606 444.5 453.214 428.49 403.212 402.82C352.972 377.029 323.5 342.204 323.5 305C323.5 267.796 352.972 232.971 403.212 207.18C453.214 181.51 522.606 165.5 599.5 165.5C638.438 165.5 675.453 169.605 709 176.992V172.385Z" fill="url(#paint5_linear_327_88)"/>
<path fill-rule="evenodd" clip-rule="evenodd" d="M708 197.196C676.789 190.017 641.865 186 605 186C472.452 186 365 237.935 365 302C365 366.065 472.452 418 605 418C641.865 418 676.789 413.983 708 406.804V401.672C676.923 408.917 641.986 413 605 413C539.311 413 480.086 400.12 437.47 379.523C394.505 358.756 370 331.029 370 302C370 272.971 394.505 245.244 437.47 224.477C480.086 203.88 539.311 191 605 191C641.986 191 676.923 195.083 708 202.328V197.196Z" fill="url(#paint6_linear_327_88)"/>
<path fill-rule="evenodd" clip-rule="evenodd" d="M709 234.292C678.446 222.813 640.332 216 599 216C498.484 216 417 256.294 417 306C417 355.706 498.484 396 599 396C640.332 396 678.446 389.187 709 377.708V372.358C678.826 383.989 640.653 391 599 391C549.342 391 504.633 381.036 472.523 365.158C440.098 349.123 422 327.91 422 306C422 284.09 440.098 262.877 472.523 246.842C504.633 230.964 549.342 221 599 221C640.653 221 678.826 228.011 709 239.642V234.292Z" fill="url(#paint7_linear_327_88)"/>
<rect x="473" y="180" width="1" height="1" fill="#93C78F"/>
<rect x="473" y="179" width="1" height="1" fill="#669DCA"/>
<circle cx="422.134" cy="306.222" r="12.2224" fill="#D3B594"/>
<path d="M415.538 309.442C418.495 315.511 427.693 317.117 427.693 317.117C421.624 320.073 414.309 317.55 411.353 311.481C408.396 305.413 410.92 298.097 416.988 295.141C416.988 295.141 412.582 303.374 415.538 309.442Z" fill="#C2A586"/>
<circle cx="275.134" cy="274.222" r="12.2224" fill="#F16E4B"/>
<path d="M268.538 277.442C271.495 283.511 280.693 285.117 280.693 285.117C274.624 288.073 267.309 285.55 264.353 279.481C261.396 273.413 263.92 266.097 269.988 263.141C269.988 263.141 265.582 271.374 268.538 277.442Z" fill="#E34946"/>
<circle cx="414.678" cy="231.452" r="15.4523" fill="#F5B14F"/>
<path d="M406.34 235.523C410.077 243.195 421.707 245.226 421.707 245.226C414.034 248.963 404.562 246.029 400.825 238.356C397.087 230.684 400.501 221.179 408.173 217.442C408.173 217.442 402.603 227.851 406.34 235.523Z" fill="#F18640"/>
<circle cx="89.5001" cy="141.5" r="14.5" fill="#1960EC"/>
<path d="M81.2371 146.445C85.44 152.999 99.5002 152.5 99.5002 152.5C93.1308 156.585 84.0002 159 77.5002 151.5C71.5001 144 73.5001 134.5 80.7665 130C80.7665 130 77.0342 139.891 81.2371 146.445Z" fill="#1549B0"/>
<circle cx="389.973" cy="64.0272" r="16.0272" fill="#88D2D9"/>
<path d="M380.84 69.4932C385.485 76.7373 401.026 76.1857 401.026 76.1857C393.398 81.1596 384.003 81.7123 377.923 74.5277C372.397 67.3431 371.844 58.5005 380.319 51.316C380.319 51.316 376.194 62.2491 380.84 69.4932Z" fill="#4CA8A2"/>
<path d="M416 64C416 64.614 415.575 65.405 414.305 66.2949C413.062 67.1652 411.2 67.9894 408.808 68.6981C404.037 70.1115 397.388 71 390 71C382.613 71 375.963 70.1115 371.192 68.6981C368.801 67.9894 366.938 67.1652 365.696 66.2949C364.425 65.405 364 64.614 364 64C364 63.386 364.425 62.595 365.696 61.7051C366.938 60.8348 368.801 60.0106 371.192 59.3019C375.963 57.8885 382.613 57 390 57C397.388 57 404.037 57.8885 408.808 59.3019C411.2 60.0106 413.062 60.8348 414.305 61.7051C415.575 62.595 416 63.386 416 64Z" stroke="#13BAC6" stroke-width="2"/>
<path d="M414.25 64C414.25 64.5787 413.824 65.3034 412.621 66.0993C411.448 66.8759 409.701 67.6043 407.476 68.2275C403.034 69.4711 396.855 70.25 390 70.25C383.145 70.25 376.966 69.4711 372.525 68.2275C370.299 67.6043 368.552 66.8759 367.379 66.0993C366.176 65.3034 365.75 64.5787 365.75 64C365.75 63.4213 366.176 62.6966 367.379 61.9007C368.552 61.1241 370.299 60.3957 372.525 59.7725C376.966 58.5289 383.145 57.75 390 57.75C396.855 57.75 403.034 58.5289 407.476 59.7725C409.701 60.3957 411.448 61.1241 412.621 61.9007C413.824 62.6966 414.25 63.4213 414.25 64Z" stroke="#78C9C9" stroke-width="1.5"/>
<path d="M405.5 59.5C407 67.5 398.837 67 390 67C381.164 67 375.5 63.9183 375.5 59.5C375.5 55.0817 381.164 51 390 51C398.837 51 404.5 54.5 405.5 59.5Z" fill="#88D2D9"/>
<path d="M379 65C374.5 63.5 377.465 65.6075 374 62.5C374.5 66.5 371.431 57.857 380.319 51.316C380.319 51.316 378 61.5 379 65Z" fill="#4CA8A2"/>
<circle cx="264" cy="153" r="18" fill="#F4D3AE"/>
<path d="M302.5 154.5C302.5 154.797 302.261 155.656 300.396 156.893C298.629 158.065 295.905 159.218 292.316 160.225C285.173 162.228 275.161 163.5 264 163.5C252.84 163.5 242.827 162.228 235.684 160.225C232.095 159.218 229.372 158.065 227.604 156.893C225.739 155.656 225.5 154.797 225.5 154.5C225.5 154.203 225.739 153.344 227.604 152.107C229.372 150.935 232.095 149.782 235.684 148.775C242.827 146.772 252.84 145.5 264 145.5C275.161 145.5 285.173 146.772 292.316 148.775C295.905 149.782 298.629 150.935 300.396 152.107C302.261 153.344 302.5 154.203 302.5 154.5Z" stroke="#F3E6C7" stroke-width="5"/>
<path d="M253.5 161C261.5 170 273.5 168.309 273.5 168.309C272 170.5 257.734 174.542 250.5 165.5C244.5 158 244 149 250 141.809C250 141.809 246.5 151.5 253.5 161Z" fill="#EFB165"/>
<path d="M298.5 153.5C298.5 153.673 298.355 154.4 296.7 155.511C295.135 156.561 292.706 157.604 289.481 158.52C283.064 160.341 274.054 161.5 264 161.5C253.946 161.5 244.937 160.341 238.52 158.52C235.294 157.604 232.865 156.561 231.301 155.511C229.645 154.4 229.5 153.673 229.5 153.5C229.5 153.327 229.645 152.6 231.301 151.489C232.865 150.439 235.294 149.396 238.52 148.48C244.937 146.659 253.946 145.5 264 145.5C274.054 145.5 283.064 146.659 289.481 148.48C292.706 149.396 295.135 150.439 296.7 151.489C298.355 152.6 298.5 153.327 298.5 153.5Z" stroke="#F38F08" stroke-width="5"/>
<path d="M294.5 153L294.5 153.001C294.5 153.002 294.5 153.003 294.499 153.006C294.498 153.012 294.495 153.025 294.487 153.048C294.47 153.093 294.428 153.183 294.33 153.313C294.124 153.588 293.731 153.964 293.052 154.402C291.687 155.282 289.546 156.17 286.677 156.952C280.975 158.507 272.956 159.5 264 159.5C255.044 159.5 247.026 158.507 241.323 156.952C238.454 156.17 236.313 155.282 234.948 154.402C234.269 153.964 233.876 153.588 233.67 153.313C233.572 153.183 233.53 153.093 233.513 153.048C233.505 153.025 233.502 153.012 233.501 153.006C233.5 153.003 233.5 153.002 233.5 153.001L233.5 153L233.5 152.999C233.5 152.998 233.5 152.997 233.501 152.994C233.502 152.988 233.505 152.975 233.513 152.952C233.53 152.907 233.572 152.817 233.67 152.687C233.876 152.412 234.269 152.036 234.948 151.598C236.313 150.718 238.454 149.83 241.323 149.048C247.026 147.493 255.044 146.5 264 146.5C272.956 146.5 280.975 147.493 286.677 149.048C289.546 149.83 291.687 150.718 293.052 151.598C293.731 152.036 294.124 152.412 294.33 152.687C294.428 152.817 294.47 152.907 294.487 152.952C294.495 152.975 294.498 152.988 294.499 152.994C294.5 152.997 294.5 152.998 294.5 152.999L294.5 153Z" stroke="#F9BD73" stroke-width="5"/>
<path d="M282 149.5C282 154 284 156 263.754 156C244 155.5 245.808 153 246.5 148.5C247.5 142 254.5 138.5 263.754 138C274.087 137.442 282 144 282 149.5Z" fill="#F4D3AE"/>
<path d="M249 150C249.241 152.213 250.5 155.5 250.5 155.5C248.701 157.224 246.158 155.474 246 155C245.5 153.5 245.5 146 250 141.809C250 141.809 248.652 146.796 249 150Z" fill="#EFB165"/>
<circle cx="468.604" cy="179" r="18" fill="#4983F8"/>
<path d="M466.604 161.13C466.604 161.13 466.604 161 470.104 161C471.604 161 472.604 161.5 472.604 161.5C472.604 161.5 473.604 162.87 472.104 163.5C470.707 164.086 470.774 163.344 470.104 163.13C469.36 162.892 468.725 163.103 468.104 162.63C467.463 162.142 466.604 161.13 466.604 161.13Z" fill="white"/>
<path d="M460.167 163.5C460.167 165.264 462.104 163 462.104 163C462.104 163 465.384 164.242 466.104 164.5C467.301 164.929 469.104 164.5 469.104 164.5C469.104 164.5 471.604 165.485 471.604 166.5C471.604 167.515 470.559 170.623 470.559 170.623C470.559 170.623 468.137 171.56 467.819 172.642C467.65 173.215 468.604 174 468.604 174L470.011 175.698C470.011 175.698 468.367 176.194 467.819 176.205C467.271 176.216 465.604 175 465.604 175C465.604 175 464.652 174 464.104 174C463.556 174 462.604 174.992 462.604 175.5C462.604 176.007 465.567 177.716 465.567 177.716C465.567 177.716 466.256 177.415 466.723 177.318C467.141 177.232 467.819 177.381 467.819 177.381L467.604 179L469.104 179.5C469.104 179.5 471.008 179.5 472.104 179.5C473.2 179.5 475.983 181.13 477.683 182.283C478.904 183.112 479.604 184.5 479.604 184.5C479.604 184.5 479.652 186.992 479.104 187.5C478.556 188.007 476.604 191 476.604 191C476.604 191 470.7 197 469.604 197C468.508 197 467.604 195.5 467.604 195.5C467.604 195.5 468.666 193.954 469.104 192.5C469.453 191.339 470.152 189.507 469.604 189C469.056 188.492 466.501 186.735 466.104 186C465.707 185.265 466.652 181.018 466.104 180.5C465.556 179.981 464.347 179.92 462.887 179.25C461.341 178.54 459.36 177.318 459.36 177.318C459.36 177.318 458.707 175.228 457.604 174C457.023 173.353 456.152 172.507 455.604 172C455.056 171.492 455.104 169.507 455.104 169C455.104 168.492 456.351 167.963 456.604 167C456.755 166.422 456.167 166 456.167 166L458.167 164.5L460.167 163.5Z" fill="#4D86CB"/>
<path d="M460.604 163.011C462.208 162.877 464.604 164.011 464.604 164.011C464.604 164.011 465.447 164.757 466.104 165.011C467.196 165.434 469.104 165.011 469.104 165.011C469.104 165.011 471.104 165.511 471.104 166.511C471.104 167.511 470.104 170.511 470.104 170.511C470.104 170.511 467.894 171.434 467.604 172.5C467.45 173.065 468.104 174.011 468.104 174.011L469.604 175.511C469.604 175.511 468.104 176 467.604 176.011C467.104 176.022 465.604 174.511 465.604 174.511C465.604 174.511 464.604 173.511 464.104 173.511C463.604 173.511 462.104 175.011 462.104 175.511C462.104 176.011 465.604 178 465.604 178C465.604 178 466.177 177.595 466.604 177.5C466.985 177.415 467.604 177.5 467.604 177.5L467.104 179L468.604 180.011C468.604 180.011 471.104 180 472.104 180C473.104 180 475.052 180.863 476.604 182C477.717 182.816 479.104 184.5 479.104 184.5C479.104 184.5 479.604 186.5 479.104 187C478.604 187.5 476.104 191 476.104 191C476.104 191 470.604 196.5 469.604 196.5C468.604 196.5 468.104 195.5 468.104 195.5C468.104 195.5 469.205 193.432 469.604 192C469.922 190.856 470.604 189.5 470.104 189C469.604 188.5 467.104 187 466.604 186C466.104 185 467.104 181.022 466.604 180.511C466.104 180 464.436 179.672 463.104 179.011C461.693 178.311 459.604 177.011 459.604 177.011C459.604 177.011 458.61 174.721 457.604 173.511C457.074 172.874 456.604 172.511 456.104 172.011C455.604 171.511 455.604 169.511 455.604 169.011C455.604 168.511 456.873 167.96 457.104 167.011C457.242 166.442 456.604 165.5 456.604 165.5L458.604 164.011C458.604 164.011 459.801 163.078 460.604 163.011Z" fill="#97C959"/>
<path d="M458.856 184.919C463.95 192.863 478.831 193.644 478.831 193.644C472.462 197.728 463.037 199.5 455.104 191C448.104 183.5 450.104 170.5 456.772 165.958C456.772 165.958 453.762 176.976 458.856 184.919Z" fill="#1F3A71" fill-opacity="0.34"/>
<circle cx="564.5" cy="108.5" r="22.5" fill="#F6D77D"/>
<path d="M550.783 115.628C556.932 127.5 573.5 129 573.5 129C566.781 132.48 554.714 133.314 546.5 122C539.253 112.017 541 100 549 92.5C549 92.5 545.537 105.5 550.783 115.628Z" fill="#D9B95D"/>
<path d="M589 171L591.518 235.973L602.16 171.828L596.515 236.604L615.113 174.299L601.394 237.857L627.653 178.373L606.077 239.711L639.584 183.988L610.49 242.137L650.718 191.053L614.565 245.097L660.878 199.458L618.236 248.545L669.904 209.07L621.447 252.426L677.655 219.738L624.146 256.679L684.007 231.293L626.29 261.236L688.861 243.553L627.847 266.026L692.14 256.325L628.79 270.973L693.793 269.407L629.107 276L693.793 282.593L628.79 281.027L692.14 295.675L627.847 285.974L688.861 308.447L626.29 290.764L684.007 320.707L624.146 295.321L677.655 332.262L621.447 299.574L669.904 342.93L618.236 303.455L660.878 352.542L614.565 306.903L650.718 360.947L610.49 309.863L639.584 368.012L606.077 312.289L627.653 373.627L601.394 314.143L615.113 377.701L596.515 315.396L602.16 380.172L591.518 316.027L589 381L586.482 316.027L575.84 380.172L581.485 315.396L562.888 377.701L576.607 314.143L550.347 373.627L571.924 312.289L538.416 368.012L567.51 309.863L527.283 360.947L563.435 306.903L517.123 352.542L559.764 303.455L508.096 342.93L556.553 299.574L500.346 332.262L553.855 295.321L493.993 320.707L551.71 290.764L489.139 308.447L550.154 285.974L485.86 295.675L549.21 281.027L484.207 282.593L548.894 276L484.207 269.407L549.21 270.973L485.86 256.325L550.154 266.026L489.139 243.553L551.71 261.236L493.993 231.293L553.855 256.679L500.346 219.738L556.553 252.426L508.096 209.07L559.764 248.545L517.123 199.458L563.435 245.097L527.283 191.053L567.51 242.137L538.416 183.988L571.924 239.711L550.347 178.373L576.607 237.857L562.888 174.299L581.485 236.604L575.84 171.828L586.482 235.973L589 171Z" fill="#FDB513"/>
<circle cx="589" cy="275" r="89" fill="#101011"/>
<path d="M664.096 224.498C664.096 224.498 615.763 213.817 584 215C551.405 216.214 504.5 231.5 504.5 231.5" stroke="#4C4C4C" stroke-width="5"/>
<circle cx="589.428" cy="274.66" r="79.6603" fill="#FDB513"/>
<path d="M540.863 299.897C559.434 335.754 624 346 624 346C600 359 553.317 360.5 525.7 322.457C502 289.81 505.177 244.553 533.5 218C533.5 218 522.291 264.041 540.863 299.897Z" fill="#DE7F27"/>
<defs>
<linearGradient id="paint0_linear_327_88" x1="354" y1="0" x2="354" y2="592" gradientUnits="userSpaceOnUse">
<stop stop-color="#505050"/>
<stop offset="1" stop-color="#101011"/>
</linearGradient>
<linearGradient id="paint1_linear_327_88" x1="396" y1="41" x2="396" y2="562" gradientUnits="userSpaceOnUse">
<stop stop-color="#505050"/>
<stop offset="1" stop-color="#101011"/>
</linearGradient>
<linearGradient id="paint2_linear_327_88" x1="462.5" y1="109" x2="462.5" y2="498" gradientUnits="userSpaceOnUse">
<stop stop-color="#505050"/>
<stop offset="1" stop-color="#101011"/>
</linearGradient>
<linearGradient id="paint3_linear_327_88" x1="593" y1="80" x2="593" y2="525" gradientUnits="userSpaceOnUse">
<stop stop-color="#505050"/>
<stop offset="1" stop-color="#101011"/>
</linearGradient>
<linearGradient id="paint4_linear_327_88" x1="489.5" y1="138" x2="489.5" y2="466" gradientUnits="userSpaceOnUse">
<stop stop-color="#505050"/>
<stop offset="1" stop-color="#101011"/>
</linearGradient>
<linearGradient id="paint5_linear_327_88" x1="514" y1="161" x2="514" y2="449" gradientUnits="userSpaceOnUse">
<stop stop-color="#505050"/>
<stop offset="1" stop-color="#101011"/>
</linearGradient>
<linearGradient id="paint6_linear_327_88" x1="536.5" y1="186" x2="536.5" y2="418" gradientUnits="userSpaceOnUse">
<stop stop-color="#505050"/>
<stop offset="1" stop-color="#101011"/>
</linearGradient>
<linearGradient id="paint7_linear_327_88" x1="563" y1="216" x2="563" y2="396" gradientUnits="userSpaceOnUse">
<stop stop-color="#505050"/>
<stop offset="1" stop-color="#101011"/>
</linearGradient>
</defs>
</svg>
