<svg width="54" height="33" viewBox="0 0 54 33" fill="none" xmlns="http://www.w3.org/2000/svg">
<circle cx="27.5" cy="16.5" r="16.5" fill="#88D2D9"/>
<path d="M53 17C53 17.614 52.5748 18.405 51.3045 19.2949C50.0622 20.1652 48.1995 20.9894 45.8078 21.6981C41.0373 23.1115 34.3875 24 27 24C19.6125 24 12.9627 23.1115 8.19221 21.6981C5.80048 20.9894 3.9378 20.1652 2.69554 19.2949C1.42518 18.405 1 17.614 1 17C1 16.386 1.42518 15.595 2.69554 14.7051C3.9378 13.8348 5.80048 13.0106 8.19221 12.3019C12.9627 10.8885 19.6125 10 27 10C34.3875 10 41.0373 10.8885 45.8078 12.3019C48.1995 13.0106 50.0622 13.8348 51.3045 14.7051C52.5748 15.595 53 16.386 53 17Z" stroke="#13BAC6" stroke-width="2"/>
<path d="M51.25 17C51.25 17.5787 50.8237 18.3034 49.6214 19.0993C48.4483 19.8759 46.7014 20.6043 44.4754 21.2275C40.034 22.4711 33.8553 23.25 27 23.25C20.1447 23.25 13.966 22.4711 9.52455 21.2275C7.29862 20.6043 5.55169 19.8759 4.37862 19.0993C3.1763 18.3034 2.75 17.5787 2.75 17C2.75 16.4213 3.1763 15.6966 4.37862 14.9007C5.55169 14.1241 7.29862 13.3957 9.52455 12.7725C13.966 11.5289 20.1447 10.75 27 10.75C33.8553 10.75 40.034 11.5289 44.4754 12.7725C46.7014 13.3957 48.4483 14.1241 49.6214 14.9007C50.8237 15.6966 51.25 16.4213 51.25 17Z" stroke="#78C9C9" stroke-width="1.5"/>
<path d="M43.5 12C44 14 45 17.5 27.5 17.0001C12 17 10.8 15.5 11.5 12C12.5 6.99992 18.3873 8.00013 27.5 8.00013C36.6127 8.00013 42.382 7.52789 43.5 12Z" fill="#88D2D9"/>
</svg>
